<?xml version="1.0" standalone="no"?>
<svg version="1.1" id="Layer_1" xmlns="http://www.w3.org/2000/svg" xmlns:xlink="http://www.w3.org/1999/xlink" x="0px" y="0px" viewBox="0 0 595.28 595.28" enable-background="new 0 0 595.28 595.28" xml:space="preserve">
<path id="color_x5F_12" fill="#2C1B14" d="M88.441,473.518l2.267-270.925l1.537,145.566l27.58-36.52L92.29,352.369l0.744,118.467
	c-1.047,0.391-2.098,0.893-3.139,1.546C89.36,472.718,88.881,473.102,88.441,473.518z M89.793,289.183l-29.117-38.556l29.07,43.001
	L89.793,289.183z"></path>
<path id="color_x5F_11" fill="#5C6671" d="M453.081,451.352V266.194l35.733,203.708c-7.06-0.96-13.059,2.481-13.059,2.481
	s5.198-11.945-11.263-19.476C460.018,450.859,456.231,450.623,453.081,451.352z"></path>
<path id="color_x5F_10" fill="#7D8D9E" d="M444.016,457.24V190.515l9.066,5.768v255.069
	C449.023,452.292,446.028,454.84,444.016,457.24z"></path>
<path id="color_x5F_9" fill="#D0E2ED" d="M359.666,435.901c0.43-0.367,0.881-0.721,1.346-1.066
	C360.549,435.181,360.096,435.534,359.666,435.901z M399.753,435.902c0.358,0.259,0.69,0.531,1.033,0.798c0,0-0.001,0-0.001-0.001
	C400.443,436.432,400.111,436.16,399.753,435.902z M406.858,291.947c-1.211,4.603-2.305,9.598-2.829,15.225l6.27-12.1
	L406.858,291.947z M392.955,232.737c-0.365-0.355-0.698-0.696-0.976-1.049C392.257,232.041,392.59,232.383,392.955,232.737
	c0.157,0.153,0.333,0.332,0.517,0.524C393.288,233.07,393.113,232.89,392.955,232.737z M359.666,435.901
	c-0.57,0.411-1.112,0.837-1.641,1.268C358.555,436.738,359.097,436.312,359.666,435.901z M383.634,429.536
	c0.279,0.021,0.536,0.065,0.809,0.092c0,0,0,0,0,0l-7.346-39.05l-11.507,17.62l-0.475,24.143c2.995-1.467,6.512-2.493,10.671-2.805
	c1.351-0.101,2.659-0.139,3.924-0.118C380.975,429.397,382.283,429.434,383.634,429.536z M363.467,433.224
	c0.11-0.064,0.222-0.126,0.333-0.189C363.689,433.098,363.577,433.16,363.467,433.224z M362.393,433.882
	c-0.209,0.135-0.409,0.275-0.612,0.413C361.983,434.156,362.185,434.017,362.393,433.882z M387.275,224.515
	c-0.087-0.289-0.133-0.608-0.143-0.944C387.142,223.907,387.188,224.226,387.275,224.515c0.087,0.289,0.153,0.556,0.199,0.802
	C387.428,225.071,387.362,224.803,387.275,224.515z M348.218,449.021c0.186-0.334,0.386-0.681,0.596-1.035
	C348.605,448.34,348.404,448.686,348.218,449.021z M349.704,446.55c-0.237,0.366-0.46,0.725-0.673,1.076
	C349.244,447.275,349.467,446.917,349.704,446.55z M349.827,446.358c0.278-0.426,0.576-0.861,0.887-1.301
	C350.403,445.497,350.105,445.932,349.827,446.358z M347.086,451.2c0.098-0.203,0.201-0.412,0.311-0.631
	C347.287,450.788,347.184,450.997,347.086,451.2z M350.949,444.729c0.269-0.373,0.55-0.75,0.843-1.13
	C351.499,443.979,351.219,444.356,350.949,444.729z M347.592,450.188c0.159-0.307,0.327-0.624,0.509-0.956
	C347.919,449.564,347.751,449.881,347.592,450.188z M326.744,451.192v-179.63l28.413,28.272l7.183-2.1
	c-0.386,5.593-0.703,11.326-0.935,16.664c-0.828,19.041-1.372,33.778-1.372,33.778l0.015,0l-2.011,5.364
	c0,0-16.901,44.949-16.901,47.466c0,1.264,2.902,26.103,5.791,50.522c0,0,0-0.001,0-0.001c-0.774,1.641-1.125,2.678-1.125,2.678
	s-2.678-6.426-12.064-6.946C331.651,447.144,328.8,449.316,326.744,451.192z M357.16,332.565l-2.643-2.409l-15.031,17.125
	l2.643,2.409L357.16,332.565z M330.474,343.326l2.643,2.409l25.029-27.457l-2.643-2.409L330.474,343.326z M352.003,443.325
	c0.357-0.455,0.732-0.912,1.125-1.37C352.736,442.413,352.361,442.87,352.003,443.325z M356.309,438.655
	c0.418-0.386,0.853-0.766,1.3-1.141C357.162,437.889,356.728,438.269,356.309,438.655z M354.462,272.297l-27.718-17.141v-64.641
	h117.272V457.24c-2.17,2.589-3.203,4.996-3.203,4.996s-1.75-4.762-5.52-8.42c0,0-3.677-5.737-7.318-5.535
	c-9.385,0.519-14.359,5.924-14.359,5.924s-0.988-2.912-3.325-6.734c0.001,0.001,0.001,0.002,0.002,0.003
	c0.032-13.944-0.068-25.833-0.474-28.129c-1.079-6.113-1.75-71.357-1.75-71.36h0c0,0-1.8-10.677-3.077-19.255l26.662-35.431
	l-23.843-45.48c-0.058-0.114-0.117-0.226-0.177-0.337l0,0c-0.842-1.578-1.792-2.872-2.842-3.78c-4.382-3.79-4.237-5.281-4.237-5.281
	s-1.298,0.503-3.233,1.256c0.038-0.785,0.093-1.608,0.169-2.444c-0.007-0.003-0.02-0.014-0.028-0.017
	c0.09,0.037,0.165,0.049,0.207,0.012c0.413-0.362,2.346-2.148,5.755-10.245c3.409-8.096,1.092-25.542-4.695-29.367
	c-5.787-3.825-17.286-0.89-21.547,0.075c-4.262,0.965-6.579-0.213-9.585,0.309c-3.007,0.521-5.736,5.395-4.488,10.72
	c1.248,5.325,7.71,7.61,7.71,7.61s0.106,0.07,0.274,0.17c-0.009-0.006-0.023-0.013-0.032-0.019
	c-0.104,0.981-0.115,1.958,0.019,2.882c0.744,5.166-2.239,7.627-1.832,8.508c0.407,0.881,1.333,0.674,1.957,0.973
	c2.733,1.307,2.091,7.63,3.173,9.164c1.083,1.534,5.968-0.12,8.088,0.289c1.654,0.319,1.173,4.878,0.882,6.864
	c0.029-0.012,0.065-0.026,0.094-0.037c-1.825,0.729-3.075,1.243-3.184,1.324c-0.036,0.026-0.069,0.075-0.101,0.132l-0.019-0.002
	L354.462,272.297z M440.008,415.507l-2.643-2.409l-15.031,17.126l2.643,2.409L440.008,415.507z M438.351,398.811l-25.029,27.457
	l2.643,2.409l25.029-27.457L438.351,398.811z M421.924,342.547l15.031-17.125l-2.643-2.409l-15.031,17.125L421.924,342.547z
	 M435.298,308.725l-25.029,27.457l2.643,2.409l25.029-27.457L435.298,308.725z M334.319,224.909l25.029-27.457l-2.643-2.409
	L331.677,222.5L334.319,224.909z M343.332,228.865l15.031-17.125l-2.643-2.409l-15.031,17.125L343.332,228.865z M353.377,441.672
	c0.332-0.38,0.678-0.76,1.035-1.139C354.054,440.912,353.709,441.292,353.377,441.672z M354.727,440.2
	c0.44-0.455,0.895-0.908,1.372-1.355C355.622,439.292,355.167,439.745,354.727,440.2z"></path>
<path id="color_x5F_8" fill="#FFFFFF" d="M354.517,330.157l2.643,2.409l-15.031,17.125l-2.643-2.409L354.517,330.157z
	 M340.689,226.456l2.643,2.409l15.031-17.125l-2.643-2.409L340.689,226.456z M331.677,222.5l2.643,2.409l25.029-27.457l-2.643-2.409
	L331.677,222.5z M421.924,342.547l15.031-17.125l-2.643-2.409l-15.031,17.125L421.924,342.547z M438.351,398.811l-25.029,27.457
	l2.643,2.409l25.029-27.457L438.351,398.811z M422.334,430.224l2.643,2.409l15.031-17.125l-2.643-2.409L422.334,430.224z
	 M435.298,308.725l-25.029,27.457l2.643,2.409l25.029-27.457L435.298,308.725z M330.474,343.326l2.643,2.409l25.029-27.457
	l-2.643-2.409L330.474,343.326z M389.577,325.636l-1.252,0.126l-1.253,0.121c0.01,0.109,1.206,10.913,14.795,13.58l0.484-2.47
	C390.661,334.699,389.616,326.005,389.577,325.636z M394.137,348.04l5.512,87.779c0.034,0.028,0.071,0.054,0.104,0.083
	c0.358,0.258,0.69,0.53,1.032,0.797l-5.568-88.663L394.137,348.04z M176.963,491.257h1.044l9.187-146.295l-1.044-0.004
	L176.963,491.257z M191.596,323.327c-0.037,0.356-1.047,8.751-12.336,10.967l0.468,2.385c13.122-2.576,14.277-13.009,14.287-13.114
	l-1.21-0.117L191.596,323.327z"></path>
<path id="color_x5F_7" fill="#7E8E9E" d="M88.583,403.81l2.125-201.218l1.538,145.566l27.58-36.52L92.29,352.369l0.544,51.485
	c18.672-0.247,37.818-6.163,46.643-19.84c13.592-21.064,11.734-61.053-10.185-81.024c-21.919-19.971,5.616-35.303,7.672-51.818
	c2.056-16.514-10.402-26.98-22.991-40.947c-12.59-13.966-7.165-27.787-7.136-48.012c0.029-20.225-11.332-22.798-16.059-22.76
	c-3.35,0.027-12.381-0.402-16.162,11.589c-4.377,13.88,4.802,19.791,0.327,44.126c-3.641,19.803-23.016,17.329-30.372,38.043
	c-8.192,23.069,12.745,36.798,14.978,53.017c2.233,16.218-10.306,24.863-22.192,49.02c-11.886,24.158,4.119,56.209,27.338,64.373
	C71.659,402.069,79.983,403.529,88.583,403.81z M89.793,289.183l-0.047,4.445l-29.07-43.001L89.793,289.183z M290.65,452.907
	c0.873,0.399,1.672,0.813,2.427,1.235c-1.134,0.41-1.805,0.724-1.805,0.724c-11.967,7.474-7.609,17.517-7.609,17.517
	s-10.396-5.972-19.926,0c-9.53,5.973-3.466,25.708-3.466,25.708s-4.043-7.531-16.461-4.674c-7.41,1.705-8.648,7.009-8.443,11.012
	c-6.961-0.959-10.149-7.185-10.149-7.185h-0.524l0.485-5.987h2.081c0,0,2.931-24.456,5.782-48.577
	c4.82,5.894,6.729,11.525,6.729,11.525s4.974-5.405,14.359-5.924c3.641-0.201,7.318,5.535,7.318,5.535
	c3.77,3.658,5.52,8.42,5.52,8.42S274.19,445.376,290.65,452.907z M178.006,491.257L178.006,491.257l0.429-6.839L178.006,491.257z
	 M178.841,477.971L178.841,477.971l2.394-38.117L178.841,477.971z M235.995,508.259c0.138,0.5,0.255,0.84,0.294,0.947h-88.666v0.038
	H117.43v-0.038H96.93l-34.47,0.038c0,0-4.909-12.972,7.508-15.829c12.418-2.856,16.461,4.674,16.461,4.674
	s-6.064-19.735,3.466-25.708c9.53-5.972,19.926,0,19.926,0s-4.358-10.042,7.609-17.517c0,0,17.777-8.363,26.104,4.723
	c0,0,2.181-1.218,4.089-2.75v0.135c0.078-0.111,0.164-0.224,0.245-0.336c1.095-0.907,2.063-1.905,2.415-2.821
	c0,0,5.973-6.758,9.614-6.557c7.622,0.422,10.82,4.739,11.753,6.347c0.127,19.027,0.398,37.651,0.398,37.651h3.086v5.987h-0.648
	v10.725h4.648c0,0,0.644-1.716,1.144-1.716c0.5,0,2.36,0.358,3.932,1.144c1.573,0.786,5.363,1.358,7.793,0.93
	s3.718-1.072,3.789-2.073c0.071-1.001-1.359-1.716-1.359-1.716c-8.866,0.572-12.87-7.293-12.87-7.293h-0.527l0.485-5.987h2.332
	l11.376-60.475c2.035-0.622,4.258-1.062,6.711-1.246c1.351-0.101,2.659-0.139,3.924-0.118c1.265-0.02,2.573,0.017,3.924,0.118
	c1.98,0.148,3.803,0.471,5.509,0.911l1.197,60.81h2.295v5.987h-0.651v10.725h4.648c0,0,0.644-1.716,1.144-1.716
	c0.5,0,2.36,0.358,3.932,1.144c1.573,0.786,5.363,1.358,7.793,0.93C235.777,508.305,235.881,508.281,235.995,508.259z
	 M349.288,509.206c-0.009,0.025-0.014,0.038-0.014,0.038l-27.808-0.031v-0.007H349.288z"></path>
<path id="color_x5F_6" fill="#ABC0D0" d="M515.608,493.416c-12.418-2.856-16.461,4.674-16.461,4.674s6.065-19.735-3.465-25.708
	c-9.53-5.972-19.926,0-19.926,0s5.198-11.945-11.263-19.476c-16.461-7.531-23.68,9.329-23.68,9.329s-1.75-4.762-5.52-8.42
	c0,0-3.677-5.737-7.318-5.535c-9.385,0.519-14.359,5.924-14.359,5.924s-3.683-10.957-13.863-18.303
	c-3.887-3.318-9.109-5.841-16.119-6.366c-1.351-0.101-2.659-0.139-3.924-0.118c-1.265-0.02-2.573,0.017-3.924,0.118
	c-7.01,0.525-12.232,3.047-16.119,6.366c-10.18,7.346-13.863,18.304-13.863,18.304s-2.678-6.426-12.064-6.946
	c-3.641-0.202-9.614,6.557-9.614,6.557c-0.352,0.915-1.32,1.914-2.415,2.821c-0.081,0.112-0.168,0.225-0.245,0.336v-0.135
	c-1.908,1.531-4.089,2.75-4.089,2.75c-8.327-13.085-26.104-4.723-26.104-4.723c-11.967,7.474-7.609,17.517-7.609,17.517
	s-10.396-5.972-19.926,0c-9.53,5.973-3.466,25.708-3.466,25.708s-4.043-7.531-16.461-4.674c-12.418,2.856-7.508,15.829-7.508,15.829
	l34.47-0.038h20.499v0.038h30.193v-0.038h163.948l-0.004-0.004l37.707,0.042C523.116,509.245,528.026,496.273,515.608,493.416z"></path>
<path id="color_x5F_5" fill="#FFD2BB" d="M310.73,246.387l3.628,2.827l-2.507,4.882l-2.982-2.1c0,0-2.373-0.005-2.644-0.736
	c-0.272-0.73,1.433-18.493,1.439-18.672c0.007-0.18,0.399-1.004,0.935-0.924C309.136,231.745,310.73,246.387,310.73,246.387z
	 M392.955,232.737c-1.46-1.418-2.41-2.629-1.338-5.173c1.072-2.545,1.005-6.718-1.057-8.192c-2.062-1.474-3.981,2.834-3.286,5.143
	c0.695,2.309,0.076,3.25-1.73,3.103c-1.807-0.147-3.198-0.677-2.313-2.037c0.885-1.36,2.407-4.664,1.329-6.127
	c-1.077-1.463-7.317-1.243-9.565-1.533c-1.778-0.229-3.351-1.089-3.933-1.439c-0.104,0.981-0.115,1.958,0.019,2.882
	c0.744,5.166-2.239,7.627-1.832,8.508c0.407,0.881,1.333,0.674,1.957,0.973c2.733,1.307,2.091,7.63,3.173,9.164
	c1.083,1.534,5.968-0.12,8.088,0.289c1.654,0.319,1.173,4.878,0.882,6.864c3.779-1.512,10.135-3.991,13.974-5.485
	c0.038-0.785,0.093-1.608,0.169-2.444C396.733,236.957,394.278,234.021,392.955,232.737z M402.786,485.776L402.786,485.776
	l0.296,4.714l0,0L402.786,485.776z M209.457,220.703c0.129-0.893,0.119-1.836,0.018-2.784c-0.562,0.338-2.08,1.169-3.798,1.39
	c-2.171,0.28-8.197,0.068-9.237,1.48s0.429,4.603,1.284,5.916c0.855,1.313-0.489,1.825-2.234,1.967
	c-1.745,0.142-2.342-0.767-1.671-2.996c0.671-2.229-1.182-6.39-3.173-4.966c-1.991,1.424-2.055,5.454-1.02,7.911
	c1.035,2.457,0.118,3.626-1.292,4.996c-1.277,1.24-3.648,4.075-4.382,4.341c0.074,0.808,0.127,1.602,0.163,2.36
	c3.707,1.442,9.845,3.837,13.494,5.297c-0.281-1.918-0.746-6.32,0.852-6.628c2.047-0.395,6.765,1.202,7.81-0.279
	c1.046-1.481,0.425-7.587,3.064-8.849c0.602-0.288,1.497-0.089,1.89-0.939C211.619,228.068,208.738,225.692,209.457,220.703z
	 M176.963,491.257h-1.828v5.987h5.903l0.485-5.987h-3.517H176.963z M178.841,477.971l-0.834,13.286L178.841,477.971L178.841,477.971
	z M218.792,497.244h5.903l0.485-5.987h-6.389V497.244z M269.795,232.58c-0.518,0.078-2.058,14.217-2.058,14.217l-3.503,2.73
	l2.421,4.714l2.88-2.028c0,0,2.291-0.005,2.554-0.71c0.262-0.705-1.383-17.858-1.39-18.031
	C270.692,233.299,270.313,232.503,269.795,232.58z"></path>
<path id="color_x5F_4" fill="#00CEC9" d="M174.909,290.794c1.169,4.445,2.226,9.268,2.731,14.702l-6.055-11.685L174.909,290.794z
	 M88.583,403.81c-8.6-0.281-16.924-1.741-23.888-4.19c-23.026-8.096-38.942-39.681-27.612-63.766
	c-7.042,9.108-12.45,19.302-15.6,30.994C0.045,446.436,62.46,509.245,62.46,509.245s-4.909-12.972,7.508-15.829
	c12.418-2.856,16.461,4.674,16.461,4.674s-5.396-17.578,2.012-24.573c0,0,0,0-0.001,0.001l1.505-179.881L88.583,403.81z
	 M129.292,302.99c21.919,19.971,23.776,59.96,10.185,81.024c-8.825,13.677-27.971,19.593-46.643,19.84l-0.544-51.468l0.744,118.45
	c8.538-3.186,16.787,1.546,16.787,1.546s-4.358-10.042,7.609-17.517c0,0,17.777-8.363,26.104,4.723c0,0,2.181-1.218,4.089-2.75
	v0.135c0.078-0.111,0.164-0.224,0.245-0.336c1.095-0.907,2.063-1.905,2.415-2.821c0,0,5.973-6.758,9.614-6.557
	c7.622,0.422,10.82,4.739,11.753,6.347c0,0.013,0,0.026,0,0.038c-0.122-18.275-0.112-36.932,0.398-39.825
	c1.042-5.903,1.69-68.911,1.69-68.911h0c0,0,1.739-10.31,2.971-18.595l-25.747-34.215l23.024-43.919
	c0.056-0.11,0.113-0.218,0.171-0.325l0,0c0.813-1.524,1.731-2.774,2.744-3.65c0.806-0.697,1.452-1.313,1.972-1.854
	c-16.021,12.196-35.035,22.445-54.271,32.571C119.848,283.574,117.956,292.661,129.292,302.99z M203.648,386.04l-8.417,44.742
	c2.035-0.622,4.258-1.062,6.711-1.246c1.351-0.101,2.659-0.139,3.924-0.118c1.265-0.02,2.573,0.017,3.924,0.118
	c1.98,0.148,3.803,0.471,5.509,0.911l-0.539-27.392L203.648,386.04z M523.116,509.245c0,0,4.909-12.972-7.508-15.829
	c-12.418-2.856-16.461,4.674-16.461,4.674s6.064-19.735-3.465-25.708c-2.292-1.436-4.632-2.177-6.868-2.481c0,0,0,0,0,0
	l-35.733-203.708v-69.911l-9.066-5.768v0H326.744v64.641l27.718,17.141l-39.435-24.387l-4.076,7.937l44.206,43.986l-28.413-28.272
	v179.63c-1.528,1.394-2.618,2.625-2.618,2.625c-0.352,0.915-1.32,1.914-2.415,2.821c-0.081,0.112-0.168,0.225-0.246,0.336v-0.135
	c-1.908,1.531-4.089,2.75-4.089,2.75c-6.716-10.553-19.573-7.157-24.299-5.447c0,0,0,0,0,0c-0.755-0.422-1.554-0.836-2.427-1.235
	c-16.461-7.53-23.68,9.329-23.68,9.329s-1.75-4.762-5.52-8.42c0,0-3.677-5.737-7.318-5.535c-9.385,0.519-14.359,5.924-14.359,5.924
	s-1.909-5.631-6.729-11.525c-0.047,0.397-0.094,0.795-0.141,1.192c2.749-23.246,5.471-46.559,5.471-47.762
	c0-2.431-16.321-45.837-16.321-45.837l-1.942-5.18l0.015,0c0,0-0.525-14.23-1.325-32.618c-0.224-5.155-0.53-10.691-0.903-16.092
	l6.937,2.028l42.689-42.477l-0.869-1.692l2.88-2.028c0,0,2.291-0.005,2.554-0.71c0.262-0.705-1.383-17.858-1.39-18.031
	c-0.007-0.173-0.385-0.97-0.903-0.892c-0.518,0.078-2.058,14.217-2.058,14.217l-3.503,2.73l-0.646-1.258l-38.082,23.55
	l-24.795-24.837l-0.018,0.002c-0.031-0.055-0.063-0.102-0.098-0.128c-0.105-0.078-1.31-0.573-3.068-1.276
	c0.026,0.01,0.058,0.023,0.084,0.033c-0.281-1.918-0.746-6.32,0.852-6.628c2.047-0.395,6.765,1.202,7.81-0.279
	c1.046-1.481,0.425-7.587,3.064-8.849c0.602-0.288,1.497-0.089,1.89-0.939c0.393-0.85-2.488-3.227-1.769-8.216
	c0.129-0.893,0.119-1.836,0.018-2.784c-0.009,0.005-0.023,0.013-0.032,0.018c0.163-0.097,0.266-0.165,0.266-0.165
	s6.24-2.207,7.445-7.349c0.937-3.996-0.45-7.72-2.476-9.422C253.61,137.154,299.576,72.964,385.38,72.951
	c78.803-0.012,141.853,67.587,153.652,129.642s-24.314,113.277,20.907,174.063C596.609,425.949,586.048,493.966,523.116,509.245z
	 M314.358,249.213l-3.628-2.827c0,0-1.595-14.642-2.131-14.723c-0.537-0.081-0.928,0.744-0.935,0.924
	c-0.007,0.18-1.711,17.942-1.439,18.672c0.272,0.73,2.644,0.736,2.644,0.736l2.983,2.1L314.358,249.213z"></path>
<path id="color_x5F_3" fill="#E84393" d="M410.293,447.474c-2.042-3.34-5.131-7.363-9.508-10.775l-5.568-88.663l12.852-0.051
	c0,0,0.671,65.247,1.75,71.36C410.225,421.641,410.325,433.53,410.293,447.474z M360.049,348.175l-2.011,5.364
	c0,0-16.901,44.949-16.901,47.466c0,1.264,2.902,26.103,5.791,50.522c1.75-3.71,5.68-10.533,12.739-15.626
	c1.58-1.349,3.395-2.555,5.448-3.561l0.475-24.143l11.507-17.62l7.346,39.05c6.537,0.649,11.485,3.047,15.206,6.192l-5.512-87.779
	L360.049,348.175z M186.15,344.958l-12.411-0.049c0,0-0.648,63.008-1.69,68.911c-1.042,5.903,0,77.437,0,77.437h4.914
	L186.15,344.958z M194.435,504.537c-8.866,0.572-12.87-7.293-12.87-7.293h-7.078v10.725h4.648c0,0,0.644-1.716,1.144-1.716
	c0.5,0,2.36,0.358,3.932,1.144c1.573,0.786,5.363,1.358,7.793,0.93s3.718-1.072,3.789-2.073
	C195.865,505.252,194.435,504.537,194.435,504.537z M238.089,504.537c-8.866,0.572-12.87-7.293-12.87-7.293h-7.078v10.725h4.648
	c0,0,0.644-1.716,1.144-1.716c0.5,0,2.36,0.358,3.932,1.144c1.573,0.786,5.363,1.358,7.793,0.93s3.718-1.072,3.789-2.073
	C239.519,505.252,238.089,504.537,238.089,504.537z M238.374,396.11c0-2.431-16.321-45.837-16.321-45.837l-1.942-5.18l-32.918-0.131
	l-9.187,146.295h5.849l19.793-105.217l11.112,17.015l1.736,88.202h10.765C227.262,491.257,238.374,398.541,238.374,396.11z"></path>
<path id="color_x5F_2" fill="#FBC02D" d="M431.655,293.298l-23.843-45.48c-0.058-0.114-0.117-0.226-0.177-0.337l0,0
	c-0.842-1.578-1.792-2.872-2.842-3.78c-4.382-3.79-4.237-5.281-4.237-5.281s-19.847,7.694-20.297,8.027
	c-0.036,0.026-0.069,0.075-0.101,0.132l-0.019-0.002l-25.677,25.72l-39.435-24.387l-4.076,7.937l44.206,43.986l7.183-2.1
	c-0.386,5.593-0.703,11.326-0.935,16.664c-0.828,19.041-1.372,33.778-1.372,33.778l34.103-0.136v0l1.081-0.004v0l12.852-0.051
	c0,0-1.8-10.677-3.077-19.255L431.655,293.298z M401.867,339.463c-13.589-2.667-14.784-13.471-14.795-13.58l1.253-0.121l1.252-0.126
	c0.039,0.369,1.084,9.063,12.774,11.357L401.867,339.463z M406.858,291.947l3.442,3.125l-6.27,12.1
	C404.552,301.545,405.647,296.55,406.858,291.947z M225.506,271.819l-24.795-24.837l-0.018,0.002
	c-0.031-0.055-0.063-0.102-0.098-0.128c-0.435-0.321-19.6-7.752-19.6-7.752s0.14,1.439-4.092,5.1
	c-1.014,0.877-1.932,2.127-2.744,3.65l0,0c-0.057,0.107-0.114,0.215-0.17,0.325l-23.024,43.919l25.747,34.215
	c-1.233,8.284-2.971,18.595-2.971,18.595l46.387,0.184c0,0-0.525-14.23-1.324-32.618c-0.224-5.155-0.53-10.691-0.903-16.092
	l6.937,2.028l42.689-42.477l-3.936-7.665L225.506,271.819z M171.585,293.812l3.323-3.018c1.169,4.445,2.226,9.268,2.731,14.702
	L171.585,293.812z"></path>
<path id="color_x5F_1" fill="#0984E3" d="M403.428,226.982c-3.409,8.096-5.342,9.882-5.755,10.245
	c-0.413,0.362-3.256-3.071-4.717-4.489c-1.461-1.418-2.41-2.629-1.338-5.173c1.072-2.545,1.005-6.718-1.057-8.192
	c-2.062-1.474-3.981,2.834-3.286,5.143c0.695,2.309,0.076,3.25-1.73,3.103c-1.807-0.147-3.198-0.677-2.313-2.037
	c0.885-1.36,2.407-4.664,1.33-6.127c-1.077-1.463-7.317-1.243-9.565-1.533c-2.248-0.29-4.175-1.591-4.175-1.591
	s-6.461-2.285-7.71-7.61c-1.248-5.325,1.482-10.199,4.488-10.72c3.007-0.521,5.324,0.657,9.585-0.309
	c4.262-0.965,15.76-3.9,21.547-0.075C404.519,201.441,406.837,218.886,403.428,226.982z M212.819,200.071
	c-2.903-0.503-5.141,0.634-9.256-0.298c-4.115-0.932-15.219-3.766-20.808-0.072c-5.588,3.694-7.827,20.54-4.534,28.359
	c3.292,7.819,5.159,9.543,5.558,9.893c0.399,0.35,3.145-2.966,4.555-4.335c1.41-1.37,2.327-2.538,1.292-4.996
	c-1.035-2.457-0.971-6.487,1.02-7.911c1.991-1.424,3.844,2.737,3.173,4.966c-0.671,2.229-0.074,3.138,1.671,2.996
	c1.745-0.142,3.089-0.654,2.234-1.967c-0.855-1.313-2.324-4.504-1.284-5.916c1.04-1.412,7.066-1.2,9.237-1.48
	c2.171-0.28,4.032-1.537,4.032-1.537s6.24-2.207,7.445-7.349C218.359,205.281,215.723,200.574,212.819,200.071z"></path>
</svg>