<?xml version='1.0' encoding='utf-8'?>
<svg xmlns="http://www.w3.org/2000/svg" version="1.1" width="1139px" height="813px" viewBox="-143 496 1139 813"> <g id="layer1"> <g style="fill:rgb(0,174,199); fill-opacity:1.0; stroke-linejoin: miter"> <path d="M-143.001,495.427C-143.1527,495.427,-143.29819,495.48727,-143.40544,495.59454C-143.5127,495.7018,-143.57295,495.84726,-143.57295,495.99896L-143.57195,1308.9999C-143.57195,1309.3158,-143.31587,1309.5718,-143.0,1309.5718L996.0009,1309.5728C996.1526,1309.5728,996.2981,1309.5126,996.40533,1309.4053C996.5126,1309.298,996.5729,1309.1526,996.5729,1309.0009L996.5719,495.99997C996.5719,495.68408,996.3158,495.428,995.99994,495.428L-143.001,495.427 Z"/> </g> <g style="fill:rgb(0,0,0); fill-opacity:1.0; stroke-linejoin: miter"> <path d="M124.31341,1137.782L124.289024,1137.9995Q124.1157,1138.657,123.27471,1139.0511Q122.42791,1139.4451,121.28036,1139.3706Q120.18517,1139.2666,119.52856,1138.7617Q119.31817,1138.5985,119.18197,1138.406L119.0675,1138.2081Q118.97316,1138.0039,118.9721,1137.782Q119.00074,1137.1007,119.75431,1136.6484Q120.50788,1136.196,121.64275,1136.1788Q122.77762,1136.196,123.5312,1136.6484Q124.28477,1137.1007,124.31341,1137.782"/> </g> <g style="fill:rgb(0,0,0); fill-opacity:0.36078432; stroke-linejoin: miter"> <path d="M892.87286,1183.1246L888.733,1183.8182Q859.2994,1185.9142,716.48834,1187.1709Q572.6893,1188.4265,377.8216,1188.1892Q191.84583,1187.8574,80.34314,1186.2479Q44.616455,1185.7277,21.487387,1185.1141L2.0480402,1184.4834Q-13.971751,1183.8324,-14.151862,1183.1246Q-9.288714,1180.9526,118.67883,1179.5105Q246.64636,1178.0682,439.36047,1178.0134Q632.07465,1178.0682,760.0422,1179.5105Q888.0098,1180.9526,892.87286,1183.1246"/> </g> <g style="fill:rgb(255,255,255); fill-opacity:1.0; stroke-linejoin: miter"> <path d="M368.2777,893.0521C368.2744,893.05164,368.27155,893.0514,368.26984,893.0513L368.26648,893.0526C368.26648,893.0514,368.26843,893.052,368.27234,893.0521 Z M472.2508,892.07025C472.2522,892.05597,472.25238,892.03046,472.2495,891.9976L472.24426,891.99896C472.24274,892.0336,472.24304,892.05707,472.24426,892.07025 Z M366.08667,884.3357L366.08667,884.33716C366.0932,884.3314,366.10266,884.324,366.1139,884.3137L366.10938,884.31494C366.09528,884.324,366.08612,884.3314,366.08136,884.3357 Z M474.3457,1000.9814C472.02618,1000.9814,469.80017,1000.8328,468.32294,1000.4993L468.3233,1000.5008C460.3719,998.7066,454.34686,993.30804,452.45282,986.12665C451.1137,981.15924,451.9157,973.91364,454.52075,966.8265L454.52155,966.82416C454.8094,966.04926,455.005,965.49567,455.13177,965.1065C444.56598,969.3123,438.13318,970.8067,430.43396,970.8067C430.35034,970.8067,430.22937,970.8062,430.1443,970.80585L430.14496,970.8073C420.94452,970.767,414.06995,967.8161,408.68994,961.5003L408.68964,961.50006C406.45782,958.8765,402.96008,952.1065,401.9875,948.44965L401.3064,945.9898C401.23834,945.7442,401.31482,945.48114,401.50415,945.31024L403.8565,943.1856L403.85632,943.18695C407.54694,939.7503,410.4389,934.7482,411.69836,929.6735L411.69836,929.675C411.94623,928.60175,412.1723,925.9755,412.20996,923.90424L412.20996,923.9056L412.20996,920.0463C412.20996,919.8195,412.3238,919.6082,412.5133,919.48334L413.84143,918.6108L413.84113,918.6121C416.01,917.1364,420.9148,912.23444,422.58014,909.903C433.7218,894.1989,429.97632,874.3997,415.2384,863.94293C413.13385,862.44977,410.80377,861.14557,408.25775,860.0704C405.22723,858.7984,400.3576,857.4151,397.6244,857.0829L397.6104,857.0812C395.7951,856.82166,395.0254,856.6715,394.73163,855.2615L394.73163,855.2628C393.3825,849.307,391.70618,845.33105,388.61432,840.86084C385.07983,835.8021,378.83905,830.60706,372.9922,827.9629L372.992,827.96423L372.98694,827.9607C372.2254,827.6127,371.55658,827.3285,371.127,827.1571C370.42676,828.8462,368.3897,834.2042,367.91553,835.5984L367.91003,835.59985C368.18988,835.80505,368.74866,836.1488,369.46478,836.4944L369.47675,836.50037C381.96246,842.83997,388.56207,856.0857,384.84106,867.9585L384.84106,867.95996C382.6375,875.08044,376.2928,880.8699,367.86273,883.6156L367.85382,883.6184C367.2163,883.8163,366.69135,884.0261,366.38318,884.16895L366.37775,884.1703C366.6966,885.80237,368.08203,891.52954,368.54352,893.02783L368.54895,893.0292C370.16797,892.77246,375.89636,890.6195,378.6347,889.1018L378.6347,889.1034C385.83313,885.0183,391.79053,877.3147,394.05835,869.0239L394.0605,869.01624L394.74335,866.62585C394.82703,866.3335,395.09424,866.13745,395.39062,866.13745C395.4239,866.13745,395.4572,866.14,395.49097,866.145L397.00867,866.3729L397.01068,866.37415C400.3131,866.8781,403.37122,867.8869,406.83167,869.53986L406.83148,869.5413C409.75238,870.9029,411.06604,871.8586,413.31732,874.0712L413.32153,874.0755C418.07996,878.8339,420.09418,883.9904,419.70233,890.4152L419.70233,890.41754C419.11505,899.5389,412.5644,908.71063,402.9334,914.14325L401.41742,915.0053L401.82013,917.112L401.82013,917.11346C402.55676,920.8018,402.48376,926.741,401.6985,929.8837C400.79004,933.5573,398.41986,936.9846,395.58588,938.68506L395.5822,938.68726C392.77454,940.34827,391.21277,940.754,387.6505,940.754C382.19055,940.754,376.85303,938.66797,371.2713,934.47217C369.1731,932.90625,368.57758,932.59326,368.34222,932.59326L368.3369,932.5946C365.20526,934.76953,361.70135,936.7385,359.3499,937.6012L359.3499,937.60266C357.0467,938.45154,356.06482,938.6356,352.66266,938.6356C352.28204,938.6356,351.85712,938.6333,351.40833,938.6294L351.41412,938.63086C347.0244,938.6293,346.05066,938.5155,343.69434,937.5968L343.69458,937.59827C337.90552,935.38135,332.82684,931.2672,329.22498,925.8451L329.22498,925.8463C318.1424,909.2013,320.49786,886.714,334.9256,869.6769L334.92743,869.6749C335.9511,868.4758,336.48425,867.6647,336.6228,867.32153L336.61768,867.32275C336.29474,866.8895,335.4312,865.7871,334.47284,864.66895L334.47058,864.6665C329.98053,859.37036,325.87836,852.28,323.6872,846.0907L323.687,846.0901C315.75146,823.6007,324.72784,800.5222,344.12018,793.6798L344.12018,793.6813C344.51965,793.5388,344.9245,793.4043,345.33282,793.2776L345.33514,793.27686C347.4442,792.6295,350.86456,792.31555,354.15802,792.31555C357.13898,792.31555,360.12213,792.5725,362.03436,793.1217L362.04028,793.1234C368.78314,795.12695,375.58905,799.05054,380.9735,804.0498L383.59937,806.4712L385.41443,805.84534L385.41998,805.84326C391.4668,803.7385,394.4931,803.1157,400.14905,802.92365L400.14728,802.92487C401.58026,802.86664,402.6947,802.8332,403.62823,802.8332C405.8418,802.8332,407.02734,803.0225,408.98663,803.51215L408.98816,803.51263C417.31024,805.6126,422.85687,810.26654,426.62006,818.21906L426.61993,818.2204C429.29694,823.8444,429.87274,827.1038,429.87274,836.22833C429.87274,839.9406,429.93292,842.1264,430.03467,843.0754L430.04077,843.0767C432.9051,842.19464,437.87134,841.7155,442.34143,841.7155C445.39398,841.71576,448.30652,841.9384,450.23895,842.4445C460.00525,845.0024,467.53027,851.5599,471.51904,860.8929L471.52008,860.8951C474.812,868.6801,475.3385,879.49615,472.88055,889.17413L472.88025,889.17523C472.61035,890.22955,472.40472,891.11285,472.3069,891.6086L472.30035,891.61005C472.8205,891.81476,473.74463,892.17316,474.77368,892.54974L474.7812,892.55255C488.336,897.6977,498.5952,906.9987,505.2339,920.2376C518.1111,945.9158,512.6382,982.8813,493.7362,995.4322L493.7362,995.43353C490.48895,997.597,488.151,998.6861,483.8487,999.9924L483.8485,999.99396C481.75806,1000.6413,477.8534,1000.9814,474.3457,1000.9814 Z"/> </g> <g style="fill:rgb(255,255,255); fill-opacity:1.0; stroke-linejoin: miter"> <path d="M367.64453,1183.6042C364.9549,1183.6042,362.2473,1183.3462,360.19952,1182.8146L360.1978,1182.8141C349.98608,1180.135,341.15918,1172.1174,335.5927,1160.6388L335.59216,1160.6381C326.63403,1142.1064,328.8844,1119.468,341.51752,1100.2888L341.52618,1100.2758L341.52618,1100.2772C342.51636,1098.7903,343.31317,1097.5153,343.62708,1096.9696L343.62183,1096.9712C343.2965,1096.5171,342.542,1095.5514,341.6352,1094.446L341.63507,1094.4457C335.53748,1087.0062,331.54095,1078.826,329.65814,1069.8735L329.65814,1069.8728C328.50073,1064.356,328.5008,1055.99,329.6582,1050.4729C331.9655,1039.4744,337.5421,1029.758,346.5069,1021.1L346.5069,1021.1013L349.05402,1018.6162L345.66138,1015.1904L345.66016,1015.1892C337.8012,1007.2151,332.65546,998.23206,329.93066,987.6787C328.39453,981.84033,328.04877,978.2063,328.27795,971.3994L328.27808,971.3988C328.58502,962.61035,330.1665,956.59326,334.15784,948.8408L334.15906,948.83875C335.2506,946.7374,335.87634,945.5679,336.66663,945.27234L336.66687,945.2721C336.7871,945.22705,336.90778,945.2009,337.03198,945.1918L337.03156,945.1935C337.06464,945.1897,337.10095,945.18835,337.13385,945.18835C337.2467,945.18835,337.35358,945.202,337.45074,945.2218L337.4478,945.22314C337.95648,945.3065,339.838,945.8574,341.58752,946.37854L341.58752,946.37964C345.1139,947.41943,348.8659,947.93994,352.56085,947.93994C357.06537,947.93994,361.4723,947.16724,365.27844,945.6406L365.28247,945.6388L367.59705,944.72815C367.6765,944.6969,367.7602,944.6814,367.8437,944.6814C367.953,944.6814,368.06195,944.7081,368.16083,944.76074L371.0064,946.2782L371.01294,946.28186C374.5531,948.21936,378.30908,949.5194,382.1313,950.07605L382.1313,950.0774C383.27368,950.24146,384.8186,950.32263,386.35034,950.32263C388.59656,950.32263,390.61108,950.14636,391.2768,949.8876L391.28168,949.8856C391.29102,949.8822,391.30975,949.87524,391.32013,949.8716L391.3222,949.8707C391.43268,949.8325,391.56042,949.8041,391.70245,949.8041C391.99585,949.8041,392.2437,949.9238,392.43726,950.099L392.43726,950.10034C392.8833,950.5029,393.20624,951.3989,393.60242,952.6571L393.60242,952.65845C399.27362,969.8946,413.3662,980.38666,430.81232,980.38654C430.85413,980.38654,430.8631,980.38654,430.9049,980.38654L430.90265,980.3881C433.47388,980.3492,434.7727,980.23944,440.60516,979.44415L440.60468,979.4455L442.56696,979.1424C442.60107,979.137,442.6352,979.1347,442.66925,979.1347C442.8291,979.1347,442.985,979.19147,443.1079,979.2968C443.25702,979.42474,443.34283,979.6115,443.34283,979.80804L443.34283,981.70526C443.34283,985.3066,444.716,990.85406,446.53235,994.4898L446.53235,994.491L447.443,996.273C447.5428,996.46857,447.54114,996.7006,447.43823,996.8946C447.33563,997.0887,447.14465,997.2204,446.92682,997.2476L445.10547,997.4753L445.1056,997.47675C437.36743,998.5236,428.51385,1002.45734,423.58545,1007.0151L423.58173,1007.0184L421.87427,1008.57416C421.74536,1008.6916,421.583,1008.7498,421.42102,1008.7498C421.24646,1008.7498,421.0722,1008.6827,420.94073,1008.54877L418.58813,1006.1584L418.58813,1006.1596C412.83203,1000.404,405.35248,997.29803,397.6535,997.298C395.85938,997.298,394.05475,997.46655,392.25415,997.8097L392.25403,997.81116C389.12958,998.4048,385.22272,999.823,382.94934,1001.17944L382.94348,1001.18274C382.12946,1001.6577,381.27972,1002.08167,380.9646,1002.1802L380.96375,1002.18054C380.94104,1002.1875,380.83344,1002.2234,380.7069,1002.2234C380.38275,1002.2234,380.1587,1001.9801,380.16248,1001.9801L380.1631,1001.98145C379.84845,1001.67065,379.0996,1000.55786,378.38245,999.3518L378.37878,999.34546C375.13953,993.7604,369.76953,988.6561,364.50366,985.9863L364.50348,985.9877L362.57642,985.0227L362.50995,985.1853L362.5102,985.18665C362.31042,985.70325,361.48047,987.8159,360.61633,989.95764L360.6162,989.9591L360.6115,989.96924C359.9782,991.5116,359.4568,992.86536,359.2204,993.5094L359.21515,993.51074C359.55914,993.7368,360.18402,994.1112,360.9646,994.55054L360.97278,994.5553C362.2163,995.27734,364.57574,997.178,366.1964,998.83606L366.1964,998.8374C368.60107,1001.24097,369.5183,1002.5552,370.91693,1005.4689L370.91693,1005.4701C373.04572,1009.8811,373.9054,1013.5852,373.9054,1018.1692C373.9054,1025.4893,371.4378,1031.2747,366.08136,1036.6311L363.1759,1039.5366L365.6648,1043.1692L365.66498,1043.1709C366.86432,1044.8955,367.93182,1046.3564,368.41467,1046.9675L368.42004,1046.9688C369.6159,1046.2244,373.27222,1042.9958,374.86963,1041.0068L374.8708,1041.0056C380.50153,1034.032,383.18268,1026.4036,383.18268,1017.2207L383.18268,1012.59155C383.18268,1012.376,383.2859,1012.1737,383.46002,1012.04675L384.71228,1011.136L384.71198,1011.1373C386.7713,1009.5574,390.64288,1007.781,393.26172,1007.15564L393.26434,1007.1549C394.8365,1006.7859,396.38983,1006.6012,397.91687,1006.6012C403.20953,1006.60126,408.11194,1008.81854,412.33844,1013.1055L412.33984,1013.10675C413.93475,1014.73346,414.9793,1015.9522,415.13544,1016.7104L415.13544,1016.7105C415.16406,1016.8493,415.17694,1017.0241,415.1269,1017.2082L415.1159,1017.24396C414.99902,1017.5953,414.39197,1019.34,413.74646,1021.12506C411.85266,1026.5093,411.49054,1032.6111,412.76434,1037.1938L412.7635,1037.1951C413.1145,1038.2471,412.48926,1038.8604,411.64417,1039.3835L411.63165,1039.3911C409.61475,1040.5793,405.62543,1044.5571,403.92236,1047.1487L403.91992,1047.1526C398.36713,1055.4814,397.45447,1067.498,401.70636,1077.9036L401.7082,1077.9082L402.61865,1080.185C402.69647,1080.3793,402.67957,1080.5984,402.573,1080.7782C402.46655,1080.958,402.2824,1081.0781,402.0749,1081.1036L400.51923,1081.2932L400.5191,1081.2944C394.91125,1081.9752,392.83923,1082.3491,390.0971,1083.2385L390.0916,1083.24C377.31744,1087.2623,369.1858,1096.5824,366.91388,1109.7665L366.91388,1109.7671C366.57153,1111.7439,366.3166,1113.8535,366.3166,1114.471C366.3166,1116.1069,365.7008,1116.3636,363.5658,1117.1503L363.5658,1117.1516C357.2968,1119.5104,350.67096,1125.9004,347.66443,1132.506C346.81982,1134.3759,346.0927,1136.5995,345.9123,1137.5048L345.90723,1137.5061C347.4234,1137.9325,352.4948,1139.2186,354.24255,1139.5748L354.24445,1139.5753C354.47583,1139.623,354.60797,1139.6451,354.6925,1139.6511L354.69775,1139.6525C354.7674,1139.5209,354.8692,1139.2025,355.0896,1138.3892L355.08936,1138.3904C356.24365,1133.9059,360.20612,1129.0573,364.53217,1126.7761L364.5335,1126.775C367.66364,1125.1344,371.10437,1124.3396,374.61194,1124.3396C381.07843,1124.3396,387.76422,1127.0392,393.1908,1132.1117L393.1906,1132.1132L394.61426,1133.4192L397.23206,1131.2216L397.2343,1131.2197L397.23456,1131.2208L397.23468,1131.2194L397.23468,1131.2208C398.94232,1129.7772,400.65778,1128.2084,401.12036,1127.7101L401.1278,1127.7025L401.5312,1127.2814L399.25415,1125.1292L399.25415,1125.1305C396.07874,1122.1407,393.25195,1120.169,389.10138,1118.15L389.09766,1118.1482C385.92334,1116.5796,379.958,1114.9165,377.74725,1114.9165C377.25555,1114.9165,376.65198,1114.9054,376.21063,1114.606L376.21063,1114.6073C376.05096,1114.4976,375.91815,1114.3572,375.8178,1114.1858L375.8178,1114.1869C375.6455,1113.8906,375.59705,1113.5509,375.59705,1113.2194L375.59705,1113.2205C375.59705,1112.4226,375.89282,1111.1709,376.37396,1109.2949C378.27338,1101.7008,382.52008,1096.0923,388.61255,1093.1836L388.6139,1093.1827C393.00256,1091.1001,395.09442,1090.6489,400.73657,1090.6489C400.97302,1090.6489,401.25366,1090.65,401.50427,1090.6516L401.50165,1090.6528L401.50745,1090.6516C405.9466,1090.6901,407.55933,1090.8833,410.664,1091.6981L410.6643,1091.6993C424.67273,1095.3828,436.6148,1104.64,441.98773,1115.9656L441.98932,1115.9689C443.96698,1120.1953,444.63293,1123.2524,444.63293,1127.903C444.63293,1132.9109,443.92163,1135.7809,441.53015,1140.7179L441.5263,1140.7256C440.0511,1143.6763,439.09772,1144.9863,436.7329,1147.3511L436.73096,1147.3529C432.02722,1152.0181,427.01672,1154.2914,420.5114,1154.6426L420.51178,1154.6442L420.50287,1154.6432C419.8004,1154.6794,419.17114,1154.7007,418.56104,1154.7007C415.91156,1154.7007,413.89264,1154.2902,409.6546,1153.0221L409.63495,1153.0156C409.5728,1152.995,409.53967,1152.9926,409.52637,1152.9926C409.52795,1152.9926,409.52783,1152.9923,409.52557,1152.9923C409.50732,1152.9923,409.3437,1153.0272,408.94983,1153.7025L408.94708,1153.7069C405.299,1159.8512,394.99908,1171.3726,389.19702,1175.7167L389.1969,1175.7179C385.15295,1178.7979,379.22937,1181.7644,375.1449,1182.8148L375.14343,1182.8153C373.06067,1183.3457,370.33386,1183.6045,367.64453,1183.6042 Z"/> </g> <g style="fill:rgb(255,255,255); fill-opacity:1.0; stroke-linejoin: miter"> <path d="M427.906,1044.0269C427.90784,1044.0261,427.90955,1044.0256,427.91125,1044.0251L427.91168,1044.0261C427.91095,1044.0239,427.91028,1044.0227,427.90955,1044.022L427.90955,1044.0232C427.90637,1044.0234,427.90326,1044.0251,427.8999,1044.0269 Z M453.1421,1117.1934C452.74194,1117.1934,452.49286,1116.7905,452.49286,1116.768L452.50366,1116.7692C452.25787,1116.3153,451.3888,1114.4983,450.40723,1112.4042L450.40656,1112.4032C447.5534,1106.2834,444.48517,1101.8336,440.10437,1097.4149L440.10413,1097.4163C434.6394,1091.9132,426.53284,1086.8442,418.73132,1084.106L418.71777,1084.1012C416.5221,1083.302,415.59918,1082.6661,413.8291,1080.7389L413.82898,1080.7402C409.71356,1076.346,407.53235,1069.9768,407.9618,1063.7693L407.9618,1063.7683C408.35083,1058.2454,410.11017,1053.8865,413.56085,1050.083L413.56177,1050.0818C416.79456,1046.5337,422.0567,1044.1323,426.7329,1044.1323C426.883,1044.1323,427.02277,1044.1284,427.14972,1044.1221L427.14374,1044.1233C426.95435,1043.8755,426.7185,1043.5828,426.45074,1043.2727L426.44995,1043.2717C424.74878,1041.294,422.58197,1037.1846,421.7614,1034.4104L421.7614,1034.4119C420.41388,1029.8904,421.28333,1024.2241,423.85193,1020.23346C426.72174,1015.71515,432.47375,1011.50165,438.64545,1009.26447L438.64545,1009.2659C443.28558,1007.5584,447.3161,1006.7098,451.67596,1006.7098C455.35382,1006.7098,459.2387,1007.3133,463.89282,1008.48553L463.89423,1008.486C468.54993,1009.66925,472.5822,1010.2482,476.26654,1010.2482C477.97424,1010.2482,479.60577,1010.1242,481.19287,1009.87726L481.19745,1009.8764C485.9817,1009.16644,488.6889,1008.31537,493.60956,1006.024L493.60956,1006.0252L497.21014,1004.3184C497.3026,1004.2747,497.40082,1004.2536,497.49817,1004.2536C497.68915,1004.2536,497.87628,1004.3348,498.00745,1004.4859L498.99408,1005.6242L499.00006,1005.6313C500.70197,1007.64984,503.1269,1012.3228,504.16895,1015.3715L504.1714,1015.3786C508.28113,1027.8627,504.6989,1041.5885,494.64374,1051.9904L494.64362,1051.9913C487.8636,1059.0013,479.70508,1062.996,470.9063,1063.5773L470.90137,1063.5778C469.9455,1063.6339,469.10266,1063.7072,468.50043,1063.7726L468.49396,1063.774C468.72772,1064.0834,469.01953,1064.4642,469.34082,1064.8778L469.34082,1064.879C473.16852,1069.7103,475.78955,1075.5382,477.13672,1082.0421C478.10413,1086.6469,477.99408,1094.0414,476.9375,1097.915L476.93695,1097.917C474.09406,1108.1989,466.59155,1114.825,455.53918,1116.7653L455.53906,1116.7665C454.30652,1116.9894,453.27307,1117.1804,453.26465,1117.1819L453.1421,1117.1934 Z"/> </g> <g style="fill:rgb(255,255,255); fill-opacity:1.0; stroke-linejoin: miter"> <path d="M221.99483,1153.8943C221.99763,1153.8942,221.99184,1153.8926,221.97444,1153.891L221.97389,1153.8922C221.97304,1153.891,221.96974,1153.8905,221.9626,1153.8904C221.9759,1153.8932,221.98567,1153.8943,221.99092,1153.8943 Z M285.9666,1138.1614C285.97247,1138.1597,285.97754,1138.1577,285.98236,1138.156L285.98236,1138.1573C286.08386,1138.1188,286.1148,1138.0994,286.10272,1138.0994C286.0904,1138.0994,286.03387,1138.1191,285.9621,1138.1614 Z M229.90501,1128.0693C229.90501,1128.0693,229.90501,1128.0693,229.90501,1128.0693L229.90501,1128.0706 Z M265.38525,1184.351C258.73004,1184.351,251.52461,1182.0549,244.90614,1177.7722C238.71144,1173.7701,231.25789,1166.4229,225.42049,1158.6781L225.41756,1158.6738L225.41469,1158.67L225.41396,1158.6693C223.74995,1156.418,222.28383,1154.4875,221.8152,1153.8976C221.41652,1153.9342,220.59615,1154.1091,219.6725,1154.3994L219.6725,1154.4011C217.46175,1155.0963,214.40797,1155.4609,211.58528,1155.4609C209.7679,1155.4609,208.00984,1155.3098,206.60579,1154.9825L206.60182,1154.9814C201.87782,1153.849,198.43114,1151.8458,194.70973,1148.1246C191.06764,1144.4824,189.18819,1141.4291,187.63753,1136.4658L187.6363,1136.4625C186.88783,1134.0197,186.73415,1132.6168,186.73415,1128.6763C186.73415,1121.7709,188.11263,1117.6174,192.43007,1111.3337L192.43025,1111.3351C194.64485,1108.1091,199.9027,1102.9329,203.52226,1100.353L203.52391,1100.3518C211.54558,1094.668,221.72987,1091.264,230.42049,1091.2642C231.01564,1091.2642,231.59993,1091.28,232.18074,1091.3123L232.18105,1091.3135C243.26003,1091.9341,250.82909,1097.6088,254.22075,1107.8229L254.22197,1107.826C254.82628,1109.6765,255.44756,1112.0254,255.57573,1113.0562L255.5756,1113.0574L255.84099,1114.8014C255.86876,1114.9845,255.82024,1115.1705,255.70671,1115.3165C255.59312,1115.4625,255.42467,1115.5554,255.24052,1115.5734L252.50865,1115.8389L252.50352,1115.8395C249.64268,1116.0961,244.45134,1117.6608,241.32915,1119.2588L241.32585,1119.2606C237.59422,1121.145,231.24449,1125.9719,230.09398,1127.7853L230.08562,1127.798L230.08543,1127.7981C229.97246,1127.9674,229.93047,1128.0479,229.91466,1128.0862L229.91075,1128.0873C229.96312,1128.2183,230.22063,1128.51,231.231,1129.4307L231.24425,1129.4432C232.21696,1130.3783,233.91338,1131.8866,235.041,1132.826L235.04637,1132.831L236.64616,1134.1935L238.52232,1132.502C243.85942,1127.6589,250.46703,1125.11,256.77448,1125.11C260.8731,1125.11,264.84863,1126.1869,268.2553,1128.4164L268.25983,1128.4197L268.26123,1128.4205L268.26935,1128.426C269.48322,1129.2605,271.01636,1130.4333,271.64075,1131.0997L271.6427,1131.1014C273.23346,1132.8116,275.40588,1136.6184,276.1548,1138.9828C276.4535,1139.9214,276.6134,1140.2537,276.6997,1140.3645L276.70404,1140.3657C276.71942,1140.3623,276.73877,1140.3584,276.76276,1140.3527L276.77832,1140.3491C279.16187,1139.8475,283.8911,1138.7174,285.47876,1138.2986L285.47418,1138.3002C285.1324,1137.0574,284.02667,1134.043,283.29633,1132.5823C280.06146,1126.1888,275.12598,1121.3682,268.7436,1118.4369L268.7436,1118.4381L265.5185,1116.9569C265.29944,1116.8563,265.15094,1116.6466,265.12878,1116.4067L264.901,1113.9404C264.52734,1110.2112,262.98944,1104.371,261.58496,1101.3773L261.58496,1101.3785C259.72443,1097.4712,257.72473,1094.7303,254.55898,1091.7133C248.91383,1086.3662,242.00008,1083.3439,233.05428,1082.3334L233.0511,1082.3329C231.32759,1082.1301,229.73128,1081.9152,229.34993,1081.8016L229.34944,1081.8029C229.33522,1081.7987,229.15132,1081.7487,229.01253,1081.6105L229.01088,1081.6117C228.72798,1081.3356,228.79347,1080.9319,228.79597,1080.9319L228.7961,1080.9333C228.8401,1080.5162,229.154,1079.7006,229.4778,1078.9644L229.47865,1078.9625C231.51326,1074.3756,232.60115,1066.9438,232.04231,1061.3936L232.04219,1061.3921C231.22414,1053.063,227.28725,1045.8447,221.19453,1041.34L221.19453,1041.3412L218.65504,1039.4825C218.44344,1039.328,218.3409,1039.0643,218.39235,1038.8073L218.69588,1037.2894L218.69576,1037.2906C218.83467,1036.5055,218.98631,1033.695,218.98631,1030.9708C218.98631,1025.8885,218.27916,1022.6215,216.55437,1019.2087L216.5543,1019.21L215.8043,1017.8212C215.66325,1017.5605,215.70921,1017.2386,215.91759,1017.02765L219.06682,1013.8403L219.06969,1013.83746C223.49864,1009.4084,227.98863,1007.3414,233.50926,1007.3414C237.53728,1007.3414,242.41142,1008.9898,246.26054,1011.6335L246.26598,1011.6375L248.04942,1012.8897C248.24773,1013.0291,248.356,1013.2642,248.33275,1013.5052L248.06773,1016.27216C247.40068,1023.6092,249.9262,1032.5598,254.5519,1039.3135C256.6624,1042.3479,261.5116,1047.042,262.9466,1047.8472L262.9508,1047.8486C263.14423,1047.5674,263.45624,1047.1106,263.85834,1046.5212C264.37634,1045.7625,265.00165,1044.8462,265.69983,1043.8313L268.25708,1040.1123L267.51758,1039.552L267.5149,1039.5498C260.19427,1033.9426,256.29688,1024.6772,257.46674,1015.7065L257.46783,1015.69916C258.00885,1011.8732,259.32208,1007.76715,261.04083,1004.7592L261.04175,1004.75775C262.8432,1001.62445,267.10004,997.2873,270.16797,995.5173L270.16748,995.5186C271.07135,994.96405,271.7649,994.48944,272.1098,994.21796L272.10547,994.2192C271.78253,993.435,271.07867,991.689,270.29712,989.75006L270.29712,989.7514L268.70142,985.8426L267.97003,986.16754L267.97003,986.169C262.1194,988.7974,256.0805,994.4561,252.69237,1000.4843L252.69225,1000.48566C252.14287,1001.4865,251.55327,1002.4268,251.30363,1002.7144L251.30534,1002.71576C251.31328,1002.7144,251.07945,1002.9969,250.73582,1002.9969C250.60063,1002.9969,250.48222,1002.95306,250.47643,1002.95123L250.47606,1002.9511C250.1361,1002.8383,248.75328,1002.1611,247.24736,1001.4078L247.24559,1001.4069C242.44765,998.9898,239.3647,998.25397,233.69893,998.25397C230.14796,998.25397,228.1728,998.44415,226.47939,998.9128L226.47871,998.914C221.35521,1000.32367,215.4359,1003.8272,212.03746,1007.5203L210.48186,1009.2276C210.34953,1009.3731,210.16722,1009.4477,209.98369,1009.4477C209.83488,1009.4477,209.68504,1009.3985,209.56078,1009.29816L206.6013,1006.9074L206.5996,1006.90594C201.6115,1002.8483,195.00233,999.89386,188.04509,998.62225L188.04485,998.62384L188.0418,998.6219C186.35771,998.31256,184.77293,997.9567,184.4066,997.8161L184.40623,997.8173L184.40605,997.81866C184.3958,997.8129,184.24284,997.7586,184.1234,997.63934C183.75499,997.27106,183.95433,996.7807,183.97368,996.72906C184.05357,996.5173,184.19475,996.30304,184.35387,996.1176L184.35374,996.11896C185.58214,994.5937,187.53587,987.9672,187.91258,983.5223L187.91295,983.519L188.17851,980.55927C188.19524,980.3725,188.28905,980.2015,188.43724,980.08673C188.55626,979.9948,188.70128,979.94586,188.84923,979.94586C188.88622,979.94586,188.92308,979.94904,188.96013,979.955L190.32579,980.1828L190.32579,980.184C193.911,980.78033,197.34682,981.08,200.54164,981.08C203.58168,981.08,206.39449,980.80804,208.89229,980.2651L208.8951,980.2647C222.38326,977.3953,232.26408,968.42914,237.2769,954.476L237.27727,954.47504C237.9865,952.5107,238.45757,951.31683,239.09337,950.8925C239.29759,950.75604,239.5255,950.6857,239.76524,950.6857C239.81859,950.6857,239.86925,950.689,239.9185,950.695L239.91875,950.69525L239.92686,950.6961L239.93498,950.6971C241.70232,950.9328,243.42235,951.0505,245.09062,951.0505C250.82133,951.0505,255.99272,949.66364,260.6739,946.8776L260.67407,946.87897C261.9734,946.0982,262.74518,945.6446,263.51794,945.6446C263.93628,945.6446,264.3095,945.7736,264.67957,945.9191L264.68854,945.92255C269.101,947.72894,274.22864,948.73663,278.94824,948.73676C280.16614,948.73676,281.34998,948.6702,282.4903,948.53345L282.4961,948.5327C286.21417,948.1195,290.85162,947.0299,293.04944,946.114L293.0551,946.1117L294.2694,945.6184C294.35193,945.58496,294.43768,945.5687,294.52252,945.5687C294.76056,945.5687,294.9895,945.6958,295.11145,945.9154L296.6272,948.6433C298.82562,952.5392,300.81946,957.7977,302.00824,962.8207L302.00916,962.82495C302.89764,966.68787,303.01282,967.9591,303.01282,974.245C303.01288,980.02856,302.86078,982.0206,302.16315,985.2383C299.47925,997.7378,293.60822,1008.3297,284.51843,1017.1127L284.5169,1017.11426L282.18542,1019.3528L284.35712,1021.37146L284.35712,1021.3727C289.5761,1026.2065,294.56055,1032.9143,297.4828,1039.0654C306.44708,1057.7632,303.27686,1079.026,289.12177,1095.8684L287.58325,1097.7206L289.35217,1100.3741C292.27313,1104.7169,296.057,1112.63,297.66943,1117.7358L297.6712,1117.7413C298.4002,1120.1205,299.39362,1124.2466,299.85394,1126.9314L299.85516,1126.9382C300.54633,1131.239,300.66107,1132.8401,300.47052,1139.3174C300.31836,1145.4481,300.08862,1147.4714,299.3153,1150.8351L299.3141,1150.8403C296.78564,1161.4514,292.51904,1169.3546,285.95538,1175.5708L285.9547,1175.5718C281.1361,1180.1202,276.7022,1182.579,270.91052,1183.7849L270.91052,1183.7861C269.12994,1184.1652,267.2798,1184.351,265.38525,1184.351 Z"/> </g> <g style="fill:rgb(255,255,255); fill-opacity:1.0; stroke-linejoin: miter"> <path d="M177.8077,1117.9288L177.6446,1117.9087C177.5309,1117.8804,176.95363,1117.7704,176.32509,1117.6967L176.3083,1117.6941C173.5735,1117.3035,170.24391,1116.2552,167.19502,1114.7887C164.53316,1113.5355,163.25557,1112.573,160.93556,1110.2147L160.93556,1110.2162C156.45338,1105.6927,154.31056,1100.917,153.53712,1093.9563L153.53712,1093.9575C152.49284,1084.6322,155.80913,1073.3741,161.64977,1066.1024L161.65489,1066.0961C162.14738,1065.4982,162.57854,1064.9474,162.8975,1064.5265L162.89421,1064.5275C162.29716,1064.4703,161.47142,1064.4066,160.54082,1064.3505L160.5399,1064.3522C155.97325,1064.0797,152.7794,1063.2601,148.34264,1061.1764L148.34264,1061.1783C139.77977,1057.1654,133.71153,1051.2118,129.47075,1042.6532L129.46953,1042.6505C126.46618,1036.5282,125.72079,1033.4686,125.682274,1026.6112L125.682274,1026.6124C125.64431,1021.9547,125.796776,1020.55334,126.54342,1017.9597L126.54342,1017.9608C127.47463,1014.6632,129.51656,1010.3474,131.41957,1007.62866L131.42183,1007.62573C132.07362,1006.7053,132.70631,1005.81226,132.85274,1005.59216L132.85286,1005.59204C133.08162,1005.24927,133.46907,1005.2344,133.57411,1005.23145L133.57234,1005.2329C133.58797,1005.2311,133.59364,1005.23083,133.60915,1005.23083C134.24239,1005.23083,135.53694,1005.714,136.9546,1006.3771L136.9546,1006.37854C143.82845,1009.49475,149.12111,1010.75635,155.45888,1010.75635C159.7118,1010.75635,162.16035,1010.4271,170.18983,1008.6849L170.19313,1008.68414C174.0796,1007.86163,177.42671,1007.4283,180.53725,1007.4283C185.8285,1007.4283,190.37727,1008.68353,195.67387,1011.3194L195.67387,1011.32074C201.98497,1014.43634,206.40495,1018.4356,208.76598,1023.19684L208.76616,1023.19806L208.76805,1023.2005C210.00462,1025.7137,210.0883,1026.1693,210.0883,1030.2123C210.0883,1033.9796,209.96944,1034.8009,208.9352,1037.2277C208.30556,1038.723,206.87581,1041.2313,205.75288,1042.819L205.74208,1042.8344L205.7405,1042.836L205.7405,1042.8375C205.14272,1043.6537,204.62825,1044.3805,204.27534,1044.8971L204.27144,1044.8986C204.4272,1044.9025,204.59975,1044.9059,204.78584,1044.9059C213.08138,1044.9059,220.67195,1051.5873,222.8185,1060.5981C223.48909,1063.3591,223.48854,1068.742,222.8191,1071.5381L222.81837,1071.5411C222.0342,1074.7557,219.8589,1078.9531,217.69728,1081.39L217.69624,1081.3911C216.05727,1083.23,215.16646,1083.8148,212.43489,1084.9076L212.42769,1084.9104C207.27425,1086.9038,200.0854,1090.7838,196.69337,1093.356L196.68965,1093.3588C192.68507,1096.3528,187.77058,1101.4573,185.19899,1105.3337L185.19423,1105.341C184.08266,1106.9708,182.2018,1110.3903,180.95583,1112.958L180.954,1112.9617C179.84816,1115.207,178.76778,1117.2012,178.38875,1117.6385L178.38942,1117.6401C178.39412,1117.6385,178.16597,1117.9288,177.8077,1117.9288 Z"/> </g> <g style="fill:rgb(255,255,255); fill-opacity:1.0; stroke-linejoin: miter"> <path d="M175.73286,965.3177C175.75179,965.2962,175.76869,965.27386,175.78346,965.25165L175.78346,965.253L175.72926,965.3177 Z M263.7735,836.22455C263.77423,836.22406,263.7749,836.22345,263.77576,836.22284L263.7763,836.2222C263.80847,836.1962,263.82147,836.1828,263.82147,836.18036L263.81995,836.1817C263.81427,836.1829,263.79474,836.1982,263.76923,836.22455 Z M260.47406,827.9626C260.4829,827.9622,260.48053,827.96063,260.4627,827.96063C260.45972,827.9609,260.45667,827.9609,260.45306,827.9611L260.4489,827.9626C260.45746,827.962,260.46472,827.96234,260.4696,827.9626 Z M156.44887,1002.1826C154.75423,1002.1826,153.07387,1002.0741,151.7419,1001.84937L151.7419,1001.8506C142.53847,1000.296,133.43059,993.94727,127.68987,985.2007L127.68743,985.19666C123.95013,979.4175,121.49325,972.8412,120.11428,964.91223L120.1141,964.9105C119.15237,959.2937,119.07845,948.4109,119.92031,941.9061L119.92068,941.9026C123.0599,918.58704,134.99413,902.12427,154.71007,894.05334L154.71867,894.0499L154.72624,894.0471L154.72624,894.04834C156.48021,893.35144,158.22313,892.6819,159.01872,892.45667L159.01555,892.458C158.80528,891.79895,158.38853,890.11584,157.99107,888.45935L157.99065,888.45715C157.28844,885.49255,157.17577,883.719,157.13774,877.4922L157.13774,877.48804C157.13774,870.83826,157.25017,869.66077,158.07268,866.6843C159.18999,862.63916,161.002,858.6222,163.06178,855.63L163.06178,855.63135C164.6313,853.27997,168.48,849.39484,170.78304,847.79425L170.78304,847.7956C173.09639,846.1868,177.42006,844.2607,180.66524,843.37225L180.66768,843.3715C182.95033,842.75604,186.28871,842.4611,189.65645,842.4611C192.97664,842.4611,196.38817,842.74713,198.93968,843.32697L198.94768,843.3287C199.98308,843.57733,200.9121,843.7795,201.53886,843.91095L201.54259,843.9124C201.49638,843.1951,201.40465,842.05365,201.26994,840.7519L201.26927,840.74445C200.53844,832.8199,201.91948,824.4987,205.05223,818.0396L205.0532,818.03766C208.48137,811.0257,215.02318,805.84576,222.58421,804.13104L222.59264,804.1292C224.25755,803.77435,225.62663,803.6103,227.83531,803.6103C228.77745,803.6103,229.882,803.6403,231.21935,803.6973L231.21709,803.69867C236.94328,803.88934,240.69597,804.6624,245.84721,806.6225L247.5158,807.24054L249.71758,805.2723L249.71739,805.2736C256.30518,799.3361,262.5829,795.74554,269.61163,793.8918L269.6112,793.893C271.55597,793.3758,273.78943,793.18646,277.3341,793.18646L277.3296,793.18756C277.50714,793.18524,277.69763,793.1845,277.8694,793.1845C283.20892,793.1846,285.83118,793.7693,290.29443,795.90686C299.6778,800.32715,306.24237,808.6183,309.36102,819.9308C310.1109,822.53577,310.22192,824.0652,310.22217,830.43396C310.26013,837.35974,310.18433,838.1902,309.17505,841.9558L309.17505,841.95715C307.8321,847.0206,305.64563,852.27795,303.1079,856.546L303.1065,856.5482C300.93604,860.16565,296.497,866.22473,294.94818,867.69385L294.93103,867.7097L294.4298,868.15295L296.4095,870.5725C302.8858,878.4667,306.8122,886.6533,308.3905,895.5841L308.39117,895.588C309.24023,900.5663,308.97504,909.0863,307.77185,913.6294L307.77185,913.63086C304.96472,924.35754,298.98376,932.5807,290.73584,936.8605C287.20135,938.7019,283.4781,939.6177,279.72375,939.6176C274.57843,939.6174,269.40936,937.89813,264.61572,934.538L262.71198,933.2275L262.07684,933.7214L262.07684,933.7227C259.04675,936.13654,254.33244,939.0164,251.67339,940.0738L251.67339,940.07526C248.87053,941.2188,248.16801,941.2996,243.94987,941.3382L243.94377,941.33954C239.70555,941.3382,239.08409,941.2629,236.93114,940.20685L236.93114,940.20807C233.18431,938.39264,230.53679,934.71063,229.4387,930.04254L229.4387,930.0441C228.8048,927.4217,228.81255,921.6733,229.4323,918.3809L229.4323,918.382C229.62236,917.2684,229.71394,916.28253,229.71095,915.919L229.7071,915.9201C229.4272,915.6508,228.55983,915.02167,227.44545,914.38495L227.43312,914.37787C226.07503,913.5629,223.68483,911.86725,222.16945,910.5074L222.16927,910.5086C215.26991,904.56744,211.58705,897.4526,211.58705,889.8199C211.58705,883.67413,213.29707,879.674,217.85341,875.0788C220.26021,872.63324,221.46407,871.7901,224.49336,870.3532C228.2441,868.55475,231.66963,867.4533,234.33174,867.2548L234.3315,867.25604L235.73134,867.1413C235.74959,867.1397,235.76802,867.13885,235.78621,867.13885C236.07198,867.13885,236.3296,867.3205,236.42336,867.59503L237.56166,870.93414L237.56221,870.93524C240.73372,880.30096,246.15858,886.6453,254.4897,890.8111C256.805,891.96893,260.35364,893.2729,262.32898,893.67523L262.33844,893.6773L262.8943,893.79865L263.3957,891.4976L263.3957,891.4991C263.67786,890.1496,264.09088,888.32904,264.37354,887.08307L264.37354,887.0843C264.4228,886.8658,264.49976,886.52655,264.5351,886.3704L264.8869,884.8011L263.95526,884.5512L263.9549,884.5523C263.02258,884.30707,261.08044,883.52704,259.61072,882.8864L259.59576,882.8796C246.86507,876.9565,242.00111,863.835,247.817,851.33527C247.89128,851.1755,247.96562,851.0196,248.0435,850.8599L248.04472,850.85724C250.80687,845.25543,254.97276,841.0601,261.03912,837.7756L261.04742,837.7713C262.10785,837.2159,262.98718,836.7176,263.44916,836.4361L263.44495,836.43744C262.86896,834.86066,260.78723,829.52814,260.16638,828.018C259.82257,828.1092,259.24158,828.31,258.52124,828.62506L258.52112,828.6263C248.07854,833.2497,239.31609,843.63165,237.01292,854.14484L237.01274,854.14594L236.36766,857.0677C236.30629,857.3449,236.0779,857.5538,235.79652,857.5904L233.74751,857.8559L233.74422,857.8565C224.75392,858.9755,215.08742,864.0601,209.74147,870.4079C207.25948,873.37115,204.19551,879.2032,203.23549,882.78485L203.23439,882.7885C202.38911,885.8759,202.08894,893.21136,202.6783,896.45355L202.67867,896.455C204.24043,905.1578,209.18861,913.09186,216.64738,918.7243L216.64714,918.7255L218.73412,920.27997C218.90465,920.40717,219.00505,920.60724,219.00505,920.81976L219.00505,924.2348C219.00505,928.6048,219.81425,932.1098,221.8209,936.3099C223.1895,939.1214,224.0186,940.3156,226.62755,942.9616L226.6298,942.96405L229.8549,946.2651C230.0319,946.4461,230.09227,946.71075,230.01152,946.9506L228.79729,950.55536C226.71837,956.94366,224.0432,961.222,219.88414,964.9921L219.88396,964.9925C214.97758,969.4349,208.5432,971.6419,200.87022,971.6419C194.97127,971.6419,188.33534,970.3387,181.07198,967.7459L181.05971,967.7414L181.05952,967.7426C179.0262,967.0079,176.92989,966.21295,176.13625,965.8354C176.2696,966.2548,176.45454,966.78046,176.68623,967.3516L176.69386,967.37103C179.15114,974.0135,179.94762,981.59796,178.57298,986.71L178.57298,986.71136C176.5695,994.3305,170.44191,999.9726,162.50478,1001.6542L162.50496,1001.6554C160.84846,1002.0073,158.60689,1002.1826,156.44887,1002.1826 Z"/> </g> <g style="fill:rgb(0,0,0); fill-opacity:1.0; stroke-linejoin: miter"> <path d="M579.2979,1178.2808Q578.9788,1177.4655,577.48926,1177.0558Q576.91815,1176.8976,576.043,1176.7701Q570.81995,1176.2211,569.62537,1175.9058Q567.55927,1175.4786,565.6968,1174.5444Q563.6518,1173.5298,561.4196,1171.7363Q559.61835,1170.3289,555.8761,1166.6586L533.2793,1169.0435Q531.0892,1176.0668,532.35876,1179.0303Q533.2193,1181.1156,536.70966,1181.6036Q538.2207,1181.8312,540.77496,1181.7723Q541.92206,1181.7482,544.1882,1181.6193Q545.0039,1181.3422,545.5506,1181.328Q546.2416,1181.285,547.17267,1181.3634Q548.40125,1181.4629,550.27014,1181.7646Q559.77246,1183.5093,562.21173,1183.783Q566.5191,1184.353,569.53033,1184.3059Q573.97455,1184.2842,576.8329,1182.5516Q579.9493,1180.4758,579.3054,1178.298"/> </g> <g style="fill:rgb(0,0,0); fill-opacity:1.0; stroke-linejoin: miter"> <path d="M532.334,1178.8185Q532.3177,1177.137,530.73706,1174.8439Q529.9051,1173.6382,528.80005,1172.4221L523.77765,1167.2537Q522.64777,1166.0507,521.95044,1165.1143Q520.1867,1162.8213,518.87,1159.07L501.86597,1144.8345Q490.5954,1150.4315,490.6944,1154.2844Q490.67932,1156.3704,493.12738,1158.7468Q493.78314,1159.3938,494.75543,1160.1793Q499.30994,1163.5769,499.84064,1164.159L507.73865,1172.0002Q509.11786,1173.3608,509.8634,1174.0071Q511.5122,1175.4703,513.5912,1176.6935Q520.9719,1180.8215,526.5383,1181.6243Q531.9477,1182.1282,532.3334,1178.8604"/> </g> <g style="fill:rgb(111,59,24); fill-opacity:1.0; stroke-linejoin: miter"> <path d="M573.869,1036.0264Q567.7368,1038.1063,566.24866,1042.983Q564.81384,1047.5414,567.8897,1056.4607Q570.0201,1059.2974,571.9001,1056.2526Q572.028,1055.7671,571.91425,1055.253Q570.5614,1050.7673,570.2871,1049.097Q569.9464,1047.2675,569.99207,1046.016Q570.0363,1043.081,572.27136,1041.46Q580.99097,1036.8164,584.5125,1043.8381Q585.5637,1045.8762,587.00745,1050.646Q594.5659,1078.5776,602.1185,1101.9614Q609.6398,1125.7618,628.4694,1182.405Q629.2535,1184.2274,631.0968,1183.8138Q632.8653,1183.1157,632.5039,1181.1967Q612.39056,1120.6837,605.10406,1097.4385Q601.4852,1085.9656,599.0102,1077.626Q597.2242,1071.7917,591.5439,1051.1401Q590.3605,1047.027,589.42114,1044.5807Q585.4259,1033.0493,573.8972,1036.0175"/> </g> <g style="fill:rgb(255,177,141); fill-opacity:1.0; stroke-linejoin: miter"> <path d="M576.6314,1032.5553Q575.9398,1032.5497,575.0354,1032.6073L565.12366,1039.268Q565.3961,1044.7869,567.1423,1046.5795Q568.9547,1048.738,573.4762,1048.828Q577.85645,1048.7908,580.8208,1046.8862Q583.4558,1045.1512,584.14856,1041.7483Q584.8229,1037.5828,582.7628,1034.8436Q580.8736,1032.5807,576.6386,1032.5555"/> </g> <g style="fill:rgb(255,255,255); fill-opacity:1.0; stroke-linejoin: miter"> <path d="M617.3935,937.04706Q611.8328,936.92725,608.33093,940.5711Q605.5421,943.1841,600.26874,954.7186L635.7489,960.83844Q636.15283,953.53625,635.52826,950.1441Q634.8882,946.2097,632.9179,943.6534Q630.79285,940.878,626.4951,939.0083Q622.0213,937.13745,617.43585,937.0474"/> </g> <g style="fill:rgb(0,0,0); fill-opacity:1.0; stroke-linejoin: miter"> <path d="M517.1924,1025.5255Q511.12866,1040.4834,513.3202,1048.7761Q513.9605,1051.9648,515.6029,1056.2037Q523.601,1074.5464,525.4091,1080.1989Q529.0798,1090.5146,533.6029,1105.5383Q517.1512,1123.1294,500.7384,1145.7594Q504.72864,1152.6239,508.1762,1155.2042Q511.4848,1157.9525,520.0728,1160.9236L533.4935,1144.2648L531.67834,1170.2482L531.7829,1170.311Q544.68585,1173.6476,557.8198,1169.4418Q565.2844,1118.9962,565.7056,1110.738Q566.76294,1100.7273,564.61035,1080.9214L561.9831,1057.2068L559.17413,1046.8307L517.216,1025.5375"/> </g> <g style="fill:rgb(136,70,54); fill-opacity:1.0; stroke-linejoin: miter"> <path d="M594.72363,955.07745L592.5951,954.7416Q588.28485,952.37244,584.17993,951.44916Q580.1258,950.4724,576.6943,950.8378Q569.7241,951.4247,562.4676,958.23956Q553.97076,966.00323,540.9848,985.51843Q532.8922,997.6608,524.45056,1011.91016Q517.39215,1023.8866,516.32916,1027.414L541.6445,1040.9619Q551.30585,1048.1055,555.00684,1049.9767Q558.97375,1052.1642,560.5376,1050.6221Q561.18164,1049.9227,561.43005,1048.922Q562.49316,1041.6404,562.8265,1042.1224L563.3172,1042.0088L564.58044,1042.9503L576.42377,1032.5754L572.9439,1029.6741L588.5362,1007.2263L590.8026,1003.37195Q594.168,995.8321,594.1872,996.37463Q594.8176,995.4014,596.33984,994.2662L602.72784,990.1792L606.34784,986.05804Q606.97516,985.2099,607.17804,984.52905Q608.247,981.8198,605.6702,975.7674Q603.4342,970.26044,594.74817,955.12085"/> </g> <g style="fill:rgb(255,245,237); fill-opacity:1.0; stroke-linejoin: miter"> <path d="M598.9324,953.81665L594.4102,955.4137Q594.0537,960.1627,593.96387,962.49243Q593.67554,968.8606,594.42926,973.05023Q595.08765,977.1734,597.67645,983.9246L601.08295,983.31323L601.76636,983.096Q604.4446,982.2567,605.49713,981.39825Q607.1983,980.26,607.528,976.27905L598.93396,953.82117"/> </g> <g style="fill:rgb(255,177,141); fill-opacity:1.0; stroke-linejoin: miter"> <path d="M609.3932,948.01276Q607.9326,947.9793,606.4839,948.8347Q605.77747,949.2518,605.0433,949.84485Q601.647,952.8639,601.3744,952.93243Q600.30554,953.6997,598.3668,954.3972L602.4402,978.6702L598.8607,980.5289L606.9769,978.07526Q610.22845,980.976,611.7809,980.89825Q612.801,980.93854,614.05493,980.07434Q614.35223,980.0227,618.01984,976.51636Q618.8274,975.84094,619.3275,975.69794Q619.6822,975.5592,620.08234,975.8362L621.112,977.0215Q621.3588,977.26373,621.69226,977.4167Q622.66327,977.8025,623.1678,977.4236Q623.5343,975.5179,625.07495,973.7236Q625.67346,972.99713,626.54645,972.1122Q631.1167,967.64734,631.7002,966.9808Q633.2217,965.36975,634.1189,964.1414Q635.8725,961.7359,635.7292,960.2801Q635.6424,958.3,632.668,956.63965Q632.2325,956.08496,621.1202,952.06Q616.9443,950.48224,612.30475,953.281Q613.44775,950.6491,612.80255,949.6002Q611.9031,948.1591,609.44135,948.01337"/> </g> <g style="fill:rgb(0,0,0); fill-opacity:0.10980392; stroke-linejoin: miter"> <path d="M554.9737,1055.8755L562.8829,1106.523L533.5311,1144.6935L565.6513,1108.9335L555.0036,1056.0222L554.9737,1055.8755 Z"/> </g> <g style="fill:rgb(0,0,0); fill-opacity:0.10980392; stroke-linejoin: miter"> <path d="M549.5633,973.79785L533.1113,1002.16565Q549.5521,1024.8848,555.44916,1032.7424Q562.0679,1041.5942,562.59875,1041.5994Q562.62476,1041.5996,562.6361,1041.5786Q562.8405,1041.1023,557.1714,1031.8511Q554.3526,1027.1543,537.13354,999.91187L549.5445,973.8385L549.5633,973.79785 Z"/> </g> <g style="fill:rgb(0,0,0); fill-opacity:0.10980392; stroke-linejoin: miter"> <path d="M573.98883,1030.5463Q575.02014,1032.3115,575.1852,1032.3131Q575.2147,1032.3134,575.2166,1032.2574Q575.23975,1032.1119,574.98584,1031.3777L574.98706,1031.378L573.9901,1030.5463 Z"/> </g> <g style="fill:rgb(0,0,0); fill-opacity:0.10980392; stroke-linejoin: miter"> <path d="M567.7785,989.86426L559.6674,1003.5521Q568.5271,1020.60297,571.6176,1026.286Q572.552,1028.0114,573.2438,1029.2426L573.82654,1028.4037L573.8278,1028.404Q573.2717,1027.0487,572.4934,1025.222Q570.24817,1019.9232,563.16846,1003.98535L567.75775,989.9278L567.7785,989.86426 Z"/> </g> <g style="fill:rgb(0,0,0); fill-opacity:0.1254902; stroke-linejoin: miter"> <path d="M602.3279,964.88617L603.2727,978.7211L606.9142,978.0019Q604.5431,974.5086,603.765,972.2747Q602.8887,969.9798,602.3307,964.90936"/> </g> <g style="fill:rgb(0,174,199); fill-opacity:1.0; stroke-linejoin: miter"> <path d="M426.05676,956.76935L426.0592,956.7131L426.6374,943.39325C428.32996,944.2608,430.20343,944.76276,432.12616,944.8464C433.93396,944.92474,435.70355,944.64325,437.38574,944.0096C439.0089,943.3979,440.47852,942.48663,441.7533,941.3018C444.3791,938.8608,445.88342,935.5417,445.98944,931.956C446.09192,928.4865,444.8476,925.1589,442.48553,922.5859C440.12347,920.013,436.91418,918.48895,433.44836,918.295C433.39178,918.29144,433.3357,918.28876,433.2791,918.28644C431.35608,918.20306,429.44647,918.54095,427.68494,919.25824L428.24786,905.99384L444.1355,906.6839C443.7798,905.9947,443.24756,905.1331,442.63593,904.15204C441.4532,902.25385,440.6054,900.0809,440.74048,897.6679C441.04535,892.2254,445.68042,887.97003,451.12903,888.1309C451.17657,888.1325,451.2248,888.13446,451.27222,888.1363C456.85046,888.378,461.17554,893.0964,460.93335,898.67474C460.83087,901.03534,459.8141,903.0809,458.49457,904.83234C457.85297,905.68365,457.18896,906.5767,456.7746,907.23236L471.6021,907.87616C473.94397,907.97784,475.76007,909.9589,475.65845,912.3007L473.82227,954.59467C473.72058,956.93695,471.7397,958.75275,469.39777,958.65094L426.05676,956.76935L426.05676,956.7695 Z"/> </g> <g style="fill:rgb(255,255,255); fill-opacity:1.0; stroke-linejoin: miter"> <path d="M480.86456,771.1813L480.867,771.1249L481.44525,757.80493C483.13788,758.67236,485.01123,759.1747,486.93402,759.2582C488.74176,759.3367,490.51135,759.05493,492.1936,758.42126C493.81677,757.8096,495.28638,756.89856,496.5611,755.7136C499.1869,753.2727,500.69128,749.9535,500.79724,746.3677C500.89972,742.89844,499.6554,739.5708,497.29333,736.9978C494.93134,734.4248,491.7221,732.901,488.25623,732.7068C488.19965,732.70337,488.14362,732.70056,488.08698,732.69824C486.16394,732.61487,484.25433,732.953,482.4928,733.6703L483.05573,720.40576L498.94336,721.0958C498.58765,720.40674,498.05542,719.54504,497.4438,718.56384C496.26105,716.6659,495.4132,714.4929,495.54834,712.07983C495.8532,706.6373,500.48822,702.3821,505.9369,702.54297C505.98438,702.54443,506.03265,702.54626,506.08002,702.5482C511.65826,702.79004,515.98334,707.5084,515.74115,713.08655C515.63873,715.44714,514.62195,717.4928,513.3024,719.24414C512.6608,720.0956,511.99677,720.9885,511.58246,721.6443L526.41,722.2881C528.75183,722.38965,530.56793,724.3707,530.46625,726.7125L528.6301,769.0067C528.52844,771.34875,526.5475,773.16455,524.2056,773.063L480.86456,771.1813L480.86456,771.1813 Z"/> </g> <g> <g style="fill:rgb(255,255,255); fill-opacity:1.0; stroke-linejoin: miter"> <path d="M668.9971,890.5482Q666.7599,889.3031,664.466,888.8039Q662.1979,888.2592,660.0812,888.5164Q658.01025,888.79895,656.2281,889.9602Q654.4914,891.1464,653.27155,893.33795L659.4288,899.03705Q660.0894,897.84985,661.48553,897.4907Q662.8815,897.13135,664.2512,897.8937Q665.43835,898.5543,665.94495,899.793Q666.4314,900.9609,665.7706,902.14795Q665.31323,902.96985,664.17084,903.4106Q663.07434,903.87665,660.54156,904.02185Q659.3235,904.0617,658.1407,904.36017Q657.029,904.6386,655.87646,905.3127Q654.79486,905.9666,653.76373,907.06726Q652.7324,908.1678,651.7923,909.8572L651.02985,911.227L657.33093,914.7338Q657.61035,914.23145,657.9102,913.8004Q658.4845,912.98364,659.03784,912.6339Q660.50024,911.83307,661.8708,911.5194Q663.24146,911.2057,664.53577,911.02905Q665.8047,910.8981,667.0279,910.7416Q668.2259,910.631,669.3935,910.14453Q670.5156,909.6329,671.6127,908.62866Q672.68427,907.6703,673.726,905.7982Q674.9458,903.60657,675.16064,901.39386Q675.3957,899.2521,674.7374,897.2115Q674.0995,895.2417,672.6797,893.49457Q671.23456,891.79346,669.0427,890.5736 Z M648.7376,915.45306L645.2309,921.7542L651.4862,925.2356L654.99304,918.9345 Z"/> </g> </g> <g style="fill:rgb(255,255,255); fill-opacity:1.0; stroke-linejoin: miter"> <path d="M615.45245,947.5087L612.9978,950.2996L606.4268,966.4609Q604.8026,968.6386,604.2587,969.96277Q603.7646,971.30273,603.7747,971.60547Q603.6823,972.17505,603.7052,972.7814L603.7607,973.39734Q603.8476,974.0233,604.04706,974.6672Q604.4525,975.966,605.229,977.20325Q606.2591,978.98267,608.4322,980.5417Q610.0288,981.6781,612.4112,981.9873Q614.3139,982.18256,615.4642,980.8553Q616.0776,980.3168,616.95123,977.5713Q614.96155,978.4958,613.7368,978.61115Q612.7287,978.72876,611.89954,978.0691Q610.53357,977.1436,609.1038,970.82104L615.45245,947.5087"/> </g> <g style="fill:rgb(255,255,255); fill-opacity:1.0; stroke-linejoin: miter"> <path d="M619.2199,976.02466L614.4012,973.2302L610.1639,976.6305L611.1055,977.7886L614.5073,975.7062L617.4726,977.7516L619.2199,976.02466"/> </g> <g style="fill:rgb(255,255,255); fill-opacity:1.0; stroke-linejoin: miter"> <path d="M643.15857,842.094L643.15857,842.09424L643.1585,842.0945L643.15857,842.094"/> </g> </g> </svg>