<?xml version="1.0" standalone="no"?>
<svg version="1.1" id="Layer_1" xmlns="http://www.w3.org/2000/svg" xmlns:xlink="http://www.w3.org/1999/xlink" x="0px" y="0px" viewBox="0 0 595.28 595.28" enable-background="new 0 0 595.28 595.28" xml:space="preserve">
<path id="color_x5F_10" fill="#E3482C" d="M221.809,233.32l0.168,12.835c0,0-8.276,0.796-11.061-0.012
	c-2.785-0.808-0.629-4.762-2.515-6.468c-1.887-1.707-14.464-1.527-14.464-1.527s12.757-5.839,15.003-6.378
	c2.246-0.539,4.133-0.988,4.761,0.988C214.33,234.734,221.809,233.32,221.809,233.32z"></path>
<path id="color_x5F_9" fill="#432355" d="M221.812,246.17l0.33,15.478c-0.392-0.014-0.762-0.005-1.078,0.029l-0.328-15.418
	C221.237,246.221,221.613,246.188,221.812,246.17z M246.466,357.56l14.646,18.995c0.758-0.387,2.07-0.72,3.317-0.9l-16.076-19.596
	L246.466,357.56z M429.002,434.004l-4.506,1.465l-41.606-50.718c-0.758,0.587-1.551,1.155-2.09,1.42
	c-0.349,0.172-0.695,0.261-1.045,0.299l40.125,52.042l-2.894,3.844l14.159,23.149L453.9,450.51L429.002,434.004z M313.495,435.469
	l-41.606-50.718c-0.758,0.587-1.551,1.155-2.09,1.42c-0.349,0.172-0.695,0.261-1.045,0.299l40.125,52.042l-2.894,3.844
	l14.159,23.149l22.753-14.995l-24.898-16.506L313.495,435.469z M357.467,357.56l14.646,18.995c0.758-0.387,2.07-0.72,3.317-0.9
	l-16.076-19.596L357.467,357.56z"></path>
<path id="color_x5F_8" fill="#87D1EE" d="M508.67,444.329v4.395v84.029H102.973v-84.029v-4.395c7.409,0,14.56,4.612,21.476,9.072
	c6.381,4.115,12.979,8.37,19.094,8.37c6.115,0,12.713-4.255,19.094-8.37c6.915-4.461,14.067-9.072,21.476-9.072
	s14.56,4.612,21.476,9.072c6.381,4.115,12.979,8.37,19.094,8.37c6.115,0,12.713-4.255,19.094-8.37
	c6.915-4.461,14.067-9.072,21.476-9.072c7.409,0,14.56,4.612,21.476,9.072c6.381,4.115,12.979,8.37,19.094,8.37
	c3.294,0,6.728-1.24,10.193-3.022l4.132,6.755l22.753-14.995l-5.989-3.97c3.114-1.343,6.273-2.21,9.482-2.21
	c7.409,0,14.56,4.612,21.476,9.072c6.381,4.115,12.979,8.37,19.094,8.37s12.713-4.255,19.094-8.37
	c4.304-2.776,8.7-5.61,13.192-7.355l11.901,19.457l18.114-11.938c6.302,4.063,12.805,8.206,18.839,8.206
	c6.115,0,12.713-4.255,19.094-8.37C494.11,448.941,501.261,444.329,508.67,444.329z"></path>
<path id="color_x5F_7" fill="#1D5C87" d="M316.015,458.75c-3.465,1.782-6.899,3.022-10.193,3.022c-6.115,0-12.713-4.255-19.094-8.37
	c-6.915-4.461-14.067-9.072-21.476-9.072c-7.409,0-14.56,4.612-21.476,9.072c-6.381,4.115-12.979,8.37-19.094,8.37
	c-6.115,0-12.713-4.255-19.094-8.37c-6.916-4.461-14.067-9.072-21.476-9.072c-3.676,0-7.288,1.137-10.839,2.825l-42.169-31.904
	l160.514,0.872l17.262,22.389l-2.894,3.844L316.015,458.75z M416.988,442.355l2.894-3.844l-16.795-21.783l-105.435-0.573
	l15.844,19.314l4.506-1.465l18.908,12.535c3.114-1.343,6.273-2.21,9.482-2.21c7.409,0,14.56,4.612,21.476,9.072
	c6.381,4.115,12.979,8.37,19.094,8.37s12.713-4.255,19.094-8.37c4.304-2.776,8.7-5.61,13.192-7.355L416.988,442.355z
	 M409.149,416.761l15.347,18.708l4.506-1.465L453.9,450.51l-4.638,3.056c0.647,0.417,1.296,0.835,1.947,1.249l57.461-37.514
	L409.149,416.761z"></path>
<path id="color_x5F_6" fill="#FFFFFF" d="M242.16,261.633l33.902-6.333c0,0-2.98-14.529,11.176-21.235
	c14.157-6.706,26.078,0,26.078,0s3.353-14.902,17.51-21.235c14.157-6.333,29.059-1.49,36.51,4.843
	c7.451,6.333,8.941,15.647,8.941,15.647s8.941-4.098,17.137-0.372c8.196,3.725,9.686,14.157,9.686,14.157s6.706-2.98,13.784,0
	c7.078,2.98,8.196,7.078,8.196,7.078l61.848,7.451H242.16z M337.93,157.589l-46.222-5.568c0,0-0.835-3.063-6.125-5.29
	c-5.29-2.227-10.302,0-10.302,0s-1.114-7.796-7.239-10.58c-6.125-2.784-12.808,0.278-12.808,0.278s-1.114-6.961-6.682-11.694
	s-16.706-8.353-27.286-3.619c-10.58,4.733-13.086,15.87-13.086,15.87s-8.91-5.012-19.49,0c-10.58,5.012-8.353,15.87-8.353,15.87
	l-25.337,4.733H337.93z M133.821,376.046c-3.007-1.266-5.856,0-5.856,0s-0.633-4.432-4.115-6.014
	c-3.482-1.583-7.281,0.158-7.281,0.158s-0.633-3.957-3.798-6.647s-9.496-4.748-15.511-2.057c-6.014,2.691-7.439,9.021-7.439,9.021
	s-5.065-2.849-11.079,0c-6.014,2.849-4.748,9.021-4.748,9.021l-14.403,2.691h103.986l-26.275-3.165
	C137.303,379.053,136.828,377.312,133.821,376.046z"></path>
<path id="color_x5F_5" fill="#FFD2BB" d="M225.182,262.432c0.549,0.715,0.157,5.523-0.329,6.277
	c-0.486,0.755-0.486,0.612-1.001,0.812c-0.232,0.09-0.464,1.466-0.649,2.948l-4.764-1.139c0.242-1.675,0.388-3.624-0.018-4.639
	c-0.8-2.001-0.4-3.716-0.257-4.231c0.143-0.515,0.486-0.6,0.715-0.429c0.229,0.171,0.743,0.715,0.743,0.715s0.321-0.76,0.815-0.943
	C221.437,261.432,224.633,261.718,225.182,262.432z M165.597,324.439l0.499-2.699h-4.67l-0.292,3.114c0,0-1.921,0.986-2.44,1.661
	c-0.519,0.675-0.519,3.166-0.415,4.049c0.104,0.882,7.111,1.038,7.714,0.415c0.603-0.623,0.124-3.374,0-3.53
	C165.868,327.294,165.597,324.439,165.597,324.439z M199.872,253.231c0.269-1.865-0.346-4.054-0.951-5.642
	c-0.543,2.694-4.062,3.935-4.062,3.935l0.813-0.976c0,0-1.301,0-3.631,2.71c-2.331,2.71-1.951,4.932-1.951,4.932h-1.87
	c0,0,0.406-1.464,0-2.764c-0.406-1.301-2.114-1.788-3.008-1.138c-0.894,0.651-0.894,2.032,0.163,3.902
	c1.057,1.87,2.439,4.471,1.382,6.504c-1.057,2.032-3.984,2.683-3.984,2.683c-0.002-0.02-0.007-0.039-0.01-0.059
	c0.031,1.068,0.019,1.976,0.003,2.561c0.018-0.011,0.035-0.022,0.052-0.03c1.154-0.499,5.105-1.981,8.886-1.142
	c-0.103-1.363-0.05-2.959,0.731-3.109c1.385-0.267,4.576,0.813,5.283-0.189c0.707-1.002,0.287-5.132,2.073-5.986
	c0.407-0.195,1.013-0.06,1.278-0.635C201.335,258.213,199.386,256.606,199.872,253.231z M273.755,377.292
	c0,0-5.28-1.225-6.552-1.662c-1.272-0.437-5.944,0.396-6.647,1.327c-0.703,0.93-1.387,2.943-1.046,4.158
	c0.341,1.216,4.195,4.692,5.923,4.94c1.728,0.248,3.019,0.78,4.368,0.116c1.349-0.664,4.293-3.227,4.293-3.227l27.687-8.487
	l-2.899-9.29L273.755,377.292z M329.327,339.603c0.001,0.001,0.002,0.002,0.003,0.002l0-0.002L329.327,339.603z M329.33,337.416
	c-0.66-0.065-1.282-0.355-1.845-0.794c-1.174-0.915-3.179-3.527-1.852-5.838c1.327-2.311,0.234-4.536-1.962-4.547
	c-2.196-0.011-3.669,4.209-3.669,4.209s-0.306,0.164-0.561,0c-0.255-0.164-0.229-0.267-0.06-1.401
	c0.168-1.133-0.143-2.455-3.733-4.845c-0.189-0.126-0.363-0.258-0.526-0.392c-1.82,2.544,0.048,3.065-3.317,6.988
	c-0.768,0.895,1.419,2.558,0.753,3.873c-0.665,1.315-0.727,3.558,1.055,4.524c1.782,0.966,4.044,1.28,5.076,2.104
	c0.274,0.219,0.49,0.409,0.665,0.573c0.024-0.049,0.045-0.089,0.057-0.109l0.395,4.006c1.462-1.238,7.986-5.961,8.927-6.41
	c0.079-0.038,0.223,0.01,0.409,0.122c-0.014-0.684-0.017-1.305,0.008-1.587C329.161,337.765,329.227,337.603,329.33,337.416z
	 M440.331,339.603l-0.003-0.001c0.001,0.001,0.002,0.002,0.003,0.002L440.331,339.603z M440.331,337.416
	c-0.66-0.065-1.282-0.355-1.845-0.794c-1.174-0.915-3.179-3.527-1.852-5.838c1.327-2.311,0.234-4.536-1.962-4.547
	c-2.196-0.011-3.669,4.209-3.669,4.209s-0.306,0.164-0.561,0c-0.255-0.164-0.229-0.267-0.06-1.401
	c0.168-1.133-0.143-2.455-3.733-4.845c-0.189-0.126-0.363-0.258-0.526-0.392c-1.82,2.544,0.048,3.065-3.317,6.988
	c-0.768,0.895,1.419,2.558,0.753,3.873c-0.665,1.315-0.727,3.558,1.055,4.524c1.782,0.966,4.044,1.28,5.076,2.104
	c0.274,0.219,0.49,0.409,0.665,0.573c0.024-0.049,0.045-0.089,0.057-0.109l0.395,4.006c1.462-1.238,7.986-5.961,8.927-6.41
	c0.079-0.038,0.223,0.01,0.409,0.122c-0.014-0.684-0.017-1.305,0.008-1.587C440.163,337.765,440.229,337.603,440.331,337.416z
	 M384.756,377.292c0,0-5.28-1.225-6.552-1.662c-1.272-0.437-5.944,0.396-6.647,1.327c-0.703,0.93-1.387,2.943-1.046,4.158
	c0.341,1.216,4.195,4.692,5.923,4.94c1.728,0.248,3.019,0.78,4.368,0.116c1.349-0.664,4.293-3.227,4.293-3.227l27.687-8.487
	l-2.899-9.29L384.756,377.292z"></path>
<path id="color_x5F_4" fill="#00CEC9" d="M389.153,388.296c-0.474,0.082-1.268,0.549-2.29,1.297l2.299,2.802l-6.272-7.645
	c-0.015,0.012-0.03,0.023-0.045,0.034c1.157-0.892,2.249-1.841,2.249-1.841l27.687-8.487l-0.874-2.802l1.876,6.014l2.616-0.41
	c-0.775,5.471-2.296,15.95-3.08,21.337C410.341,396.968,393.033,387.627,389.153,388.296z M553.693,488.542
	c-15.823,34.668-45.024,44.212-45.024,44.212v-84.029v-4.395c-7.409,0-14.56,4.612-21.476,9.072
	c-6.381,4.115-12.979,8.37-19.094,8.37c-5.414,0-11.206-3.336-16.891-6.957l57.461-37.514l-99.52-0.541l30.671,0.167
	c2.681-6.383,3.864-14.005,3.864-14.005s3.652-20.148,5.12-29.241c3.166-19.607-5.888-32.169-8.476-34.079
	c0.001,0.001,0.002,0.001,0.003,0.002l0-0.002l-0.003-0.001c-0.067-0.05-0.127-0.088-0.185-0.123
	c-0.014-0.684-0.017-1.305,0.008-1.587c0.012-0.127,0.078-0.29,0.18-0.477c-0.05-0.005-0.097-0.02-0.147-0.027
	c0.757,0.114,1.564-0.056,2.396-0.657c1.496-1.08,5.548-5.323,5.587-8.062c0.039-2.739-1.079-4.299-0.896-6.825
	c0.183-2.526-3.303-6.011-5.75-6.503c-2.447-0.493-3.942-1.655-5.776-2.354c-1.834-0.699-5.038-0.077-6.152,0.969
	c-1.114,1.046-1.738,1.519-3.729,2.745c-1.984,1.222-2.798,5.084,0.755,7.475c-0.177-0.12-0.343-0.243-0.497-0.37
	c-1.82,2.544,0.048,3.065-3.317,6.988c-0.768,0.895,1.419,2.559,0.753,3.873c-0.665,1.315-0.727,3.558,1.055,4.524
	c1.782,0.966,4.044,1.28,5.076,2.104c0.274,0.219,0.49,0.409,0.665,0.573c0.024-0.049,0.045-0.089,0.057-0.109l0.395,4.006
	c0.008-0.006,0.019-0.016,0.027-0.022c-0.201,0.169-0.322,0.283-0.322,0.313c0,0.058,0.023,0.223,0.042,0.452l-21.056,17.424
	l0.385,1.233l-25.126,12.126c0,0-5.28-1.225-6.552-1.662c-0.522-0.18-1.619-0.143-2.777,0.025c0.001,0,0.002,0,0.003,0
	l-16.076-19.597l-1.887,1.502l14.646,18.995c-0.254,0.13-0.452,0.264-0.556,0.402c-0.703,0.93-1.387,2.943-1.046,4.158
	c0.341,1.216,4.195,4.692,5.923,4.94c1.281,0.184,2.321,0.521,3.323,0.414l14.145,18.346l-9.937-12.888
	c-6.993,6-19.131,18.382-25.089,24.56l14.013,0.053l14.943-8.323c0,0,4.122,4.336,10.522,8.484l-69.353-0.377
	c2.64-6.349,3.681-13.403,3.681-13.403s3.652-20.148,5.12-29.241c3.166-19.606-5.887-32.167-8.476-34.078
	c0.001,0.001,0.002,0.001,0.002,0.002l0-0.002l-0.003-0.001c-0.067-0.05-0.127-0.088-0.185-0.123
	c-0.014-0.684-0.017-1.305,0.008-1.587c0.012-0.127,0.078-0.29,0.18-0.477c-0.05-0.005-0.098-0.02-0.147-0.027
	c0.757,0.115,1.565-0.056,2.397-0.657c1.496-1.08,5.548-5.323,5.587-8.062c0.039-2.739-1.079-4.299-0.896-6.825
	c0.183-2.526-3.303-6.011-5.75-6.503c-2.447-0.493-3.942-1.655-5.776-2.354c-1.834-0.699-5.038-0.077-6.152,0.969
	c-1.114,1.046-1.738,1.519-3.729,2.745c-1.99,1.226-2.806,5.108,0.784,7.498c-0.19-0.126-0.363-0.258-0.526-0.392
	c-1.82,2.544,0.048,3.065-3.317,6.988c-0.768,0.895,1.419,2.559,0.753,3.873c-0.665,1.315-0.727,3.558,1.055,4.524
	c1.782,0.966,4.044,1.28,5.076,2.104c0.274,0.219,0.49,0.409,0.665,0.573c0.024-0.049,0.045-0.089,0.057-0.109l0.395,4.006
	c0.008-0.007,0.02-0.017,0.029-0.023c-0.202,0.17-0.323,0.284-0.323,0.314c0,0.058,0.023,0.223,0.042,0.452l-21.056,17.424
	l0.385,1.233l-25.126,12.126c0,0-5.28-1.225-6.552-1.662c-0.522-0.18-1.619-0.143-2.777,0.025c0.001,0,0.002,0,0.003,0
	l-16.076-19.597l-1.887,1.502l14.646,18.995c-0.254,0.13-0.452,0.264-0.556,0.402c-0.703,0.93-1.387,2.943-1.046,4.158
	c0.341,1.216,4.195,4.692,5.923,4.94c1.281,0.184,2.321,0.521,3.323,0.414l22.695,29.436l-18.487-23.977
	c-6.946,5.96-18.49,17.748-24.484,23.96l-45.212-0.246l1.413-35.557c0.819-1.108,1.318-1.818,1.395-1.999
	c0.589-1.382,2.826-37.669,3.441-47.792h0.199c0,0-3.922-28.866-2.623-32.92c4.465,1.989,8.89,3.322,10.715,1.905
	c4.266-3.312,6.085-26.645,6.085-26.645l-0.689-0.165c0.185-1.483,0.417-2.858,0.649-2.948c0.514-0.2,0.514-0.057,1-0.812
	c0.486-0.755,0.877-5.562,0.329-6.277c-0.356-0.464-1.824-0.743-3.086-0.783c0.017,0.001,0.03-0.002,0.047-0.001l-0.33-15.478
	c0.097-0.009,0.165-0.015,0.165-0.015l-0.168-12.835c0,0-7.479,1.415-8.108-0.561c-0.629-1.976-2.515-1.527-4.761-0.988
	c-2.246,0.539-15.003,6.378-15.003,6.378s12.577-0.18,14.464,1.527c1.887,1.706-0.269,5.66,2.515,6.468
	c2.134,0.619,7.479,0.297,9.868,0.112c-0.018,0.001-0.029,0.002-0.048,0.004l0.328,15.418c0.025-0.003,0.059,0,0.084-0.002
	c-0.282,0.026-0.538,0.064-0.712,0.129c-0.494,0.184-0.815,0.944-0.815,0.944s-0.515-0.543-0.743-0.715
	c-0.229-0.172-0.572-0.086-0.715,0.429c-0.143,0.514-0.543,2.229,0.257,4.231c0.406,1.015,0.26,2.964,0.018,4.639l2.308,0.552
	l-3.221-0.77c0,0-1.732,16.357-3.208,15.332c-0.861-0.598-6.84-5.663-11.675-9.783c-0.361-0.555-0.741-1.187-1.171-1.95
	c-2.154-3.815-8.123-5.475-8.123-5.475c-0.547-0.237-1.107-0.41-1.671-0.533c0.009,0.002,0.018,0.002,0.027,0.004
	c-0.102-1.363-0.05-2.959,0.731-3.109c1.385-0.267,4.576,0.813,5.283-0.189c0.707-1.002,0.287-5.132,2.073-5.986
	c0.407-0.195,1.013-0.06,1.278-0.635c0.266-0.575-1.683-2.183-1.197-5.557c0.269-1.865-0.346-4.054-0.951-5.642
	c-0.004,0.021-0.012,0.04-0.017,0.06c0.031-0.141,0.06-0.284,0.074-0.434c0.271-2.954-5.149-8.97-12.845-7.832
	c-7.696,1.138-9.702,7.832-9.702,7.832h-1.545v1.545c0,0-4.228-0.325-5.772,2.52c-1.545,2.845-3.414,18.21-2.276,26.747
	c1.138,8.536-0.813,12.195-0.813,12.195s7.805-8.048,9.674-13.495c1.87-5.447-0.569-14.065-1.707-17.804
	c-1.138-3.74,0-7.723,1.87-7.967c0,0-0.894,4.959,0.569,8.211c1.455,3.233,5.959,5.582,6.331,8.166
	c0.03,1.061,0.019,1.965,0.003,2.548c0.018-0.011,0.035-0.022,0.052-0.03c-0.353,0.153-0.838,1.153-1.358,2.657l-19.809,29.717
	l-1.246,19.516h1.019l-0.292,3.114c0,0-1.92,0.986-2.44,1.661c-0.519,0.675-0.519,3.166-0.415,4.049
	c0.104,0.882,7.111,1.038,7.714,0.415c0.603-0.623,0.124-3.374,0-3.53c-0.124-0.156-0.395-3.01-0.395-3.01l0.499-2.699h0.747
	l3.53-17.44l10.877-7.402c1.142,1.989,2.348,4.514,3.033,8.898c0.781,5-4.152,24.499-4.152,24.499h0.09l-0.01,0.009l0.368,2.204
	l-0.025,0.004c0.118,0.679,0.239,1.35,0.361,2.014l7.132,42.773l-20.651,38.148l7.221,0.039l-43.511-0.236l42.169,31.905
	c-3.607,1.715-7.152,3.999-10.637,6.247c-6.381,4.115-12.979,8.37-19.094,8.37c-6.114,0-12.713-4.255-19.094-8.37
	c-6.915-4.461-14.067-9.072-21.476-9.072v4.395v84.029c0,0-49.185-5.442-64.567-63.461c-11.959-45.108-0.203-102.629,59.922-141.599
	c68.846-44.623,29.97-100.716,59.617-170.104H337.93l-46.222-5.568c0,0-0.835-3.063-6.125-5.29c-5.29-2.227-10.302,0-10.302,0
	s-1.114-7.796-7.239-10.58c-6.125-2.784-12.808,0.278-12.808,0.278s-1.114-6.961-6.682-11.694s-16.706-8.353-27.286-3.619
	c-10.58,4.733-13.086,15.87-13.086,15.87s-8.91-5.012-19.49,0c-10.58,5.012-8.353,15.87-8.353,15.87l-22.142,4.137
	c0.01-0.022,0.018-0.044,0.028-0.067c33.304-76.904,166.003-96.924,223.756-28.131c36.198,43.119,39.793,82.517,50.439,126.271
	l-7.338-0.884c0,0-1.118-4.098-8.196-7.078c-7.078-2.98-13.784,0-13.784,0s-1.49-10.431-9.686-14.157
	c-8.196-3.725-17.137,0.372-17.137,0.372s-1.49-9.314-8.941-15.647c-7.451-6.333-22.353-11.176-36.51-4.843
	c-14.157,6.333-17.51,21.235-17.51,21.235s-11.921-6.706-26.078,0c-14.157,6.706-11.176,21.235-11.176,21.235l-33.902,6.333h191.911
	c0.586,2.262,1.187,4.533,1.826,6.822c13.733,49.229,58.019,48.941,90.838,87.382S569.517,453.873,553.693,488.542z
	 M137.303,379.053c0,0-0.475-1.741-3.482-3.007c-3.007-1.266-5.856,0-5.856,0s-0.633-4.432-4.115-6.014
	c-3.482-1.583-7.281,0.158-7.281,0.158s-0.633-3.957-3.798-6.647s-9.496-4.748-15.511-2.057c-6.014,2.691-7.439,9.021-7.439,9.021
	s-5.065-2.849-11.079,0c-6.014,2.849-4.748,9.021-4.748,9.021l-14.403,2.691h103.986L137.303,379.053z M194.432,415.594l1.21,0.007
	L194.432,415.594L194.432,415.594z M177.279,415.501l17.153,0.093l-3.034-18.195C186.372,403.871,181.07,410.656,177.279,415.501z
	 M276.831,408.217l-13.912,7.749l23.772,0.129C280.418,411.998,276.831,408.217,276.831,408.217z M300.906,371.656l0.874,2.802
	l-27.687,8.487c0,0-1.091,0.948-2.249,1.841c0.015-0.012,0.03-0.023,0.045-0.034l3.973,4.843c1.022-0.748,1.816-1.215,2.29-1.297
	c3.88-0.669,21.187,8.671,24.166,10.3c0.784-5.387,2.306-15.866,3.08-21.337l-2.616,0.41L300.906,371.656z M279.162,393.616
	l-3.3-4.023l0,0L279.162,393.616z"></path>
<path id="color_x5F_3" fill="#E84393" d="M180.21,330.304l0.367,2.204l-0.025,0.004c0.118,0.679,0.239,1.35,0.361,2.014
	l7.132,42.773l-20.651,38.148l9.884,0.054c3.791-4.845,9.093-11.63,14.119-18.101l3.034,18.195l8.837,0.048l1.413-35.557
	c0.819-1.108,1.318-1.818,1.395-1.999c0.589-1.382,2.826-37.669,3.44-47.792H180.22L180.21,330.304z M248.353,416.02l14.331,0.078
	l14.148-7.88c0,0,3.661,3.863,10.062,8.012l4.828,0.026l-18.757-24.328C265.971,397.928,254.31,409.843,248.353,416.02z
	 M278.152,388.296c-0.474,0.082-1.268,0.549-2.29,1.297l21.899,26.695l31.188,0.169c2.681-6.383,3.734-13.535,3.734-13.535
	l0.702-4.082h-30.621C302.764,398.841,282.401,387.564,278.152,388.296z M358.876,416.488l14.013,0.053l14.944-8.323
	c0,0,4.122,4.336,10.522,8.484l4.732,0.026l-19.121-24.8C376.972,397.928,364.834,410.31,358.876,416.488z M413.765,398.841
	c0,0-20.363-11.277-24.612-10.544c-0.474,0.082-1.268,0.549-2.29,1.297l22.286,27.167l30.671,0.167
	c2.681-6.383,3.864-14.005,3.864-14.005l0.702-4.082H413.765z"></path>
<path id="color_x5F_2" fill="#FBC02D" d="M217.526,271.113l6.367,1.523c0,0-1.82,23.333-6.085,26.645
	c-1.825,1.417-6.25,0.084-10.715-1.905c-1.299,4.054,2.623,32.92,2.623,32.92H180.13c0,0,4.934-19.499,4.152-24.499
	c-0.685-4.384-1.891-6.909-3.033-8.898l-10.877,7.402l-3.53,17.44h-6.436l1.246-19.516l19.809-29.717
	c0.52-1.504,1.005-2.504,1.358-2.657c1.324-0.572,6.325-2.438,10.53-0.613c0,0,5.969,1.66,8.123,5.475
	c0.431,0.763,0.811,1.395,1.171,1.95c4.835,4.119,10.814,9.185,11.675,9.783C215.795,287.47,217.526,271.113,217.526,271.113z
	 M328.733,339.358c-1.061,0.505-9.222,6.447-9.222,6.7c0,0.058,0.023,0.223,0.042,0.452l-21.056,17.424l4.286,13.736l2.616-0.41
	c-0.775,5.471-2.296,15.95-3.08,21.337c0.283,0.155,0.446,0.245,0.446,0.245h30.621l-0.702,4.082c0,0,3.652-20.148,5.12-29.241
	C341.315,351.938,329.794,338.853,328.733,339.358z M439.734,339.358c-1.061,0.505-9.222,6.447-9.222,6.7
	c0,0.058,0.023,0.223,0.042,0.452l-21.056,17.424l4.286,13.736l2.616-0.41c-0.775,5.471-2.296,15.95-3.08,21.337
	c0.283,0.155,0.446,0.245,0.446,0.245h30.621l-0.702,4.082c0,0,3.652-20.148,5.12-29.241
	C452.316,351.938,440.795,338.853,439.734,339.358z"></path>
<path id="color_x5F_1" d="M337.166,328.67c-0.039,2.739-4.091,6.982-5.587,8.062c-1.496,1.08-2.921,0.805-4.095-0.111
	s-3.179-3.527-1.852-5.838c1.327-2.311,0.234-4.536-1.962-4.547c-2.196-0.011-3.669,4.209-3.669,4.209s-0.306,0.164-0.561,0
	c-0.255-0.164-0.229-0.267-0.06-1.401c0.168-1.133-0.143-2.455-3.733-4.845c-3.59-2.39-2.775-6.272-0.784-7.498
	c1.99-1.226,2.615-1.699,3.729-2.745c1.114-1.046,4.318-1.668,6.152-0.969c1.834,0.699,3.329,1.861,5.776,2.354
	s5.933,3.977,5.75,6.503C336.087,324.371,337.206,325.932,337.166,328.67z M186.134,239.383c-7.696,1.138-9.702,7.832-9.702,7.832
	h-1.545v1.545c0,0-4.228-0.325-5.772,2.52c-1.545,2.845-3.414,18.21-2.276,26.747c1.138,8.536-0.813,12.195-0.813,12.195
	s7.805-8.048,9.674-13.495c1.87-5.447-0.569-14.065-1.707-17.804c-1.138-3.74,0-7.723,1.87-7.967c0,0-0.894,4.959,0.569,8.211
	c1.463,3.252,6.016,5.61,6.341,8.211c0,0,2.927-0.651,3.984-2.683c1.057-2.032-0.325-4.634-1.382-6.504
	c-1.057-1.87-1.057-3.252-0.163-3.902c0.894-0.651,2.602-0.162,3.008,1.138c0.406,1.301,0,2.764,0,2.764h1.87
	c0,0-0.379-2.222,1.951-4.932c2.331-2.71,3.631-2.71,3.631-2.71l-0.813,0.976c0,0,3.848-1.355,4.119-4.309
	C199.25,244.261,193.83,238.245,186.134,239.383z M447.271,321.845c0.183-2.526-3.303-6.011-5.75-6.503s-3.942-1.655-5.776-2.354
	c-1.834-0.699-5.038-0.077-6.152,0.969c-1.114,1.046-1.738,1.519-3.729,2.745c-1.99,1.226-2.806,5.108,0.784,7.498
	c3.59,2.39,3.901,3.711,3.733,4.845c-0.168,1.133-0.195,1.237,0.06,1.401c0.255,0.164,0.561,0,0.561,0s1.473-4.22,3.669-4.209
	c2.196,0.011,3.288,2.236,1.962,4.547c-1.327,2.311,0.678,4.923,1.852,5.838c1.174,0.915,2.598,1.191,4.095,0.111
	c1.496-1.08,5.548-5.323,5.587-8.062C448.207,325.932,447.088,324.371,447.271,321.845z" fill="#0984E3"></path>
</svg>